<svg xmlns="http://www.w3.org/2000/svg" version="1.1" xmlns:xlink="http://www.w3.org/1999/xlink" xmlns:svgjs="http://svgjs.dev/svgjs" width="400" height="500"><svg xmlns="http://www.w3.org/2000/svg" xmlns:xlink="http://www.w3.org/1999/xlink" width="400" zoomAndPan="magnify" viewBox="0 0 300 374.999991" height="500" preserveAspectRatio="xMidYMid meet" version="1.0"><defs><g></g><clipPath id="SvgjsClipPath1009"><path d="M 12.488281 7.878906 L 287.511719 7.878906 L 287.511719 366.703125 L 12.488281 366.703125 Z M 12.488281 7.878906 " clip-rule="nonzero"></path></clipPath><clipPath id="SvgjsClipPath1008"><path d="M 60.488281 7.878906 L 239.511719 7.878906 C 266.023438 7.878906 287.511719 29.371094 287.511719 55.878906 L 287.511719 319.121094 C 287.511719 345.628906 266.023438 367.121094 239.511719 367.121094 L 60.488281 367.121094 C 33.976562 367.121094 12.488281 345.628906 12.488281 319.121094 L 12.488281 55.878906 C 12.488281 29.371094 33.976562 7.878906 60.488281 7.878906 Z M 60.488281 7.878906 " clip-rule="nonzero"></path></clipPath><linearGradient x1="-0.000000111948" gradientTransform="matrix(1.074325, 0, 0, 1.074325, 12.486437, 7.87232)" y1="167.194" x2="255.999996" gradientUnits="userSpaceOnUse" y2="167.194" id="SvgjsLinearGradient1007"><stop stop-opacity="1" stop-color="rgb(0%, 43.899536%, 87.799072%)" offset="0"></stop><stop stop-opacity="1" stop-color="rgb(0.012207%, 43.997192%, 87.989807%)" offset="0.03125"></stop><stop stop-opacity="1" stop-color="rgb(0.0366211%, 44.194031%, 88.371277%)" offset="0.0625"></stop><stop stop-opacity="1" stop-color="rgb(0.0610352%, 44.390869%, 88.752747%)" offset="0.09375"></stop><stop stop-opacity="1" stop-color="rgb(0.0869751%, 44.587708%, 89.134216%)" offset="0.125"></stop><stop stop-opacity="1" stop-color="rgb(0.111389%, 44.784546%, 89.51416%)" offset="0.15625"></stop><stop stop-opacity="1" stop-color="rgb(0.135803%, 44.981384%, 89.89563%)" offset="0.1875"></stop><stop stop-opacity="1" stop-color="rgb(0.161743%, 45.178223%, 90.2771%)" offset="0.21875"></stop><stop stop-opacity="1" stop-color="rgb(0.186157%, 45.375061%, 90.658569%)" offset="0.25"></stop><stop stop-opacity="1" stop-color="rgb(0.212097%, 45.571899%, 91.040039%)" offset="0.28125"></stop><stop stop-opacity="1" stop-color="rgb(0.236511%, 45.768738%, 91.421509%)" offset="0.3125"></stop><stop stop-opacity="1" stop-color="rgb(0.260925%, 45.965576%, 91.802979%)" offset="0.34375"></stop><stop stop-opacity="1" stop-color="rgb(0.286865%, 46.162415%, 92.182922%)" offset="0.375"></stop><stop stop-opacity="1" stop-color="rgb(0.311279%, 46.359253%, 92.564392%)" offset="0.40625"></stop><stop stop-opacity="1" stop-color="rgb(0.335693%, 46.556091%, 92.945862%)" offset="0.4375"></stop><stop stop-opacity="1" stop-color="rgb(0.361633%, 46.75293%, 93.327332%)" offset="0.46875"></stop><stop stop-opacity="1" stop-color="rgb(0.386047%, 46.949768%, 93.708801%)" offset="0.5"></stop><stop stop-opacity="1" stop-color="rgb(0.411987%, 47.146606%, 94.090271%)" offset="0.53125"></stop><stop stop-opacity="1" stop-color="rgb(0.436401%, 47.343445%, 94.471741%)" offset="0.5625"></stop><stop stop-opacity="1" stop-color="rgb(0.460815%, 47.540283%, 94.851685%)" offset="0.59375"></stop><stop stop-opacity="1" stop-color="rgb(0.486755%, 47.737122%, 95.233154%)" offset="0.625"></stop><stop stop-opacity="1" stop-color="rgb(0.511169%, 47.93396%, 95.614624%)" offset="0.65625"></stop><stop stop-opacity="1" stop-color="rgb(0.537109%, 48.130798%, 95.996094%)" offset="0.6875"></stop><stop stop-opacity="1" stop-color="rgb(0.561523%, 48.327637%, 96.377563%)" offset="0.71875"></stop><stop stop-opacity="1" stop-color="rgb(0.585938%, 48.524475%, 96.759033%)" offset="0.75"></stop><stop stop-opacity="1" stop-color="rgb(0.611877%, 48.721313%, 97.140503%)" offset="0.78125"></stop><stop stop-opacity="1" stop-color="rgb(0.636292%, 48.918152%, 97.520447%)" offset="0.8125"></stop><stop stop-opacity="1" stop-color="rgb(0.660706%, 49.11499%, 97.901917%)" offset="0.84375"></stop><stop stop-opacity="1" stop-color="rgb(0.686646%, 49.311829%, 98.283386%)" offset="0.875"></stop><stop stop-opacity="1" stop-color="rgb(0.71106%, 49.508667%, 98.664856%)" offset="0.90625"></stop><stop stop-opacity="1" stop-color="rgb(0.737%, 49.707031%, 99.046326%)" offset="0.9375"></stop><stop stop-opacity="1" stop-color="rgb(0.761414%, 49.90387%, 99.427795%)" offset="0.96875"></stop><stop stop-opacity="1" stop-color="rgb(0.785828%, 50.100708%, 99.807739%)" offset="1"></stop></linearGradient></defs><g clip-path="url(#145272a413)"><g clip-path="url(#e02f71bca2)"><path fill="url(#7d9d4565cd)" d="M 12.488281 7.878906 L 12.488281 366.703125 L 287.511719 366.703125 L 287.511719 7.878906 Z M 12.488281 7.878906 " fill-rule="nonzero"></path></g></g><g fill="#ffffff" fill-opacity="1"><g transform="translate(63.728403, 204.99507)"><g><path d="M 66.28125 -153.328125 L 133.8125 -153.328125 C 139.382812 -153.328125 144.03125 -153.328125 147.75 -153.328125 C 151.46875 -153.328125 154.253906 -153.222656 156.109375 -153.015625 C 162.921875 -152.804688 167.566406 -151.566406 170.046875 -149.296875 C 172.941406 -147.234375 174.390625 -143 174.390625 -136.59375 C 174.390625 -135.769531 174.390625 -134.789062 174.390625 -133.65625 C 174.390625 -132.519531 174.285156 -131.332031 174.078125 -130.09375 C 173.867188 -128.238281 173.554688 -125.65625 173.140625 -122.34375 C 172.734375 -119.039062 172.21875 -114.914062 171.59375 -109.96875 L 169.75 -98.5 C 168.09375 -85.90625 166.75 -77.644531 165.71875 -73.71875 C 164.476562 -67.9375 162.515625 -63.703125 159.828125 -61.015625 C 156.941406 -58.335938 152.503906 -56.582031 146.515625 -55.75 C 142.585938 -55.132812 135.148438 -54.828125 124.203125 -54.828125 L 54.515625 -54.828125 C 53.691406 -54.828125 52.863281 -54.414062 52.03125 -53.59375 C 51.625 -53.175781 51.210938 -51.9375 50.796875 -49.875 C 50.796875 -48.84375 50.488281 -46.773438 49.875 -43.671875 L 118.015625 -43.671875 C 130.203125 -43.671875 137.945312 -43.363281 141.25 -42.75 C 146.207031 -42.125 149.613281 -40.570312 151.46875 -38.09375 C 153.738281 -35.820312 155.082031 -31.28125 155.5 -24.46875 C 155.90625 -22.613281 156.109375 -20.082031 156.109375 -16.875 C 156.109375 -13.675781 156.109375 -9.804688 156.109375 -5.265625 L 156.109375 0 L 39.03125 0 C 32.832031 0 27.71875 -0.148438 23.6875 -0.453125 C 19.664062 -0.765625 16.519531 -1.023438 14.25 -1.234375 C 9.914062 -2.472656 6.816406 -4.4375 4.953125 -7.125 C 3.710938 -9.601562 3.09375 -12.800781 3.09375 -16.71875 L 3.09375 -19.203125 C 3.300781 -22.921875 4.234375 -31.078125 5.890625 -43.671875 L 15.171875 -109.96875 L 18.890625 -132.265625 C 20.335938 -139.492188 22.507812 -144.550781 25.40625 -147.4375 C 28.707031 -150.332031 33.039062 -152.085938 38.40625 -152.703125 C 40.675781 -153.117188 44.132812 -153.328125 48.78125 -153.328125 C 53.425781 -153.328125 59.257812 -153.328125 66.28125 -153.328125 Z M 66.90625 -109.96875 C 63.8125 -109.96875 62.054688 -109.863281 61.640625 -109.65625 C 61.222656 -109.445312 60.601562 -108.929688 59.78125 -108.109375 C 59.363281 -107.273438 58.953125 -106.34375 58.546875 -105.3125 C 58.546875 -104.488281 58.234375 -102.21875 57.609375 -98.5 L 121.734375 -98.5 C 123.378906 -98.707031 124.617188 -99.222656 125.453125 -100.046875 C 126.066406 -100.671875 126.375 -101.601562 126.375 -102.84375 C 126.789062 -104.28125 127.101562 -106.65625 127.3125 -109.96875 Z M 66.90625 -109.96875 "></path></g></g></g><g fill="#ffffff" fill-opacity="1"><g transform="translate(61.935249, 312.297391)"><g><path d="M 154.40625 0 L 36.53125 0 C 26.914062 0 20.265625 -0.304688 16.578125 -0.921875 C 10.847656 -1.941406 7.0625 -3.785156 5.21875 -6.453125 C 3.78125 -9.316406 3.0625 -12.796875 3.0625 -16.890625 L 3.0625 -18.71875 C 3.476562 -23.019531 4.398438 -31.207031 5.828125 -43.28125 L 7.375 -54.34375 C 8.394531 -60.882812 9.210938 -66.203125 9.828125 -70.296875 C 10.441406 -74.390625 10.953125 -77.460938 11.359375 -79.515625 C 13.203125 -86.054688 15.554688 -90.453125 18.421875 -92.703125 C 20.878906 -94.546875 23.945312 -95.773438 27.625 -96.390625 C 29.875 -96.796875 33.097656 -97.101562 37.296875 -97.3125 C 41.492188 -97.519531 46.660156 -97.625 52.796875 -97.625 L 114.8125 -97.625 C 117.882812 -97.625 120.441406 -98.335938 122.484375 -99.765625 C 124.117188 -100.796875 124.9375 -102.128906 124.9375 -103.765625 L 124.9375 -104.375 C 124.9375 -105.8125 124.222656 -106.832031 122.796875 -107.4375 C 121.566406 -108.46875 119.414062 -108.984375 116.34375 -108.984375 L 15.046875 -108.984375 C 16.890625 -122.898438 18.421875 -131.800781 19.640625 -135.6875 C 20.867188 -140.1875 22.609375 -143.5625 24.859375 -145.8125 C 27.316406 -148.675781 31.410156 -150.414062 37.140625 -151.03125 C 41.441406 -151.644531 50.550781 -151.953125 64.46875 -151.953125 L 132.3125 -151.953125 C 138.65625 -151.953125 143.875 -151.953125 147.96875 -151.953125 C 152.0625 -151.953125 155.03125 -151.75 156.875 -151.34375 C 162.800781 -150.726562 166.789062 -149.398438 168.84375 -147.359375 C 171.300781 -145.304688 172.53125 -141.3125 172.53125 -135.375 C 172.53125 -134.5625 172.53125 -133.691406 172.53125 -132.765625 C 172.53125 -131.847656 172.425781 -130.773438 172.21875 -129.546875 C 172.21875 -127.910156 172.007812 -125.40625 171.59375 -122.03125 C 171.1875 -118.65625 170.578125 -114.304688 169.765625 -108.984375 L 168.234375 -97.625 C 166.585938 -85.75 165.359375 -77.867188 164.546875 -73.984375 C 163.109375 -67.234375 160.859375 -62.523438 157.796875 -59.859375 C 154.929688 -57.203125 149.40625 -55.566406 141.21875 -54.953125 C 139.375 -54.742188 136.96875 -54.585938 134 -54.484375 C 131.03125 -54.390625 127.5 -54.34375 123.40625 -54.34375 L 62.9375 -54.34375 C 59.039062 -54.34375 56.070312 -53.828125 54.03125 -52.796875 C 51.570312 -51.566406 50.34375 -50.035156 50.34375 -48.203125 C 50.34375 -47.171875 51.160156 -46.039062 52.796875 -44.8125 C 54.847656 -43.789062 57.507812 -43.28125 60.78125 -43.28125 L 116.96875 -43.28125 C 124.53125 -43.28125 130.664062 -43.175781 135.375 -42.96875 C 140.082031 -42.769531 143.460938 -42.46875 145.515625 -42.0625 C 150.835938 -41.445312 154.316406 -39.5 155.953125 -36.21875 C 157.179688 -34.382812 157.796875 -31.421875 157.796875 -27.328125 C 157.796875 -26.503906 157.796875 -25.53125 157.796875 -24.40625 C 157.796875 -23.28125 157.691406 -22 157.484375 -20.5625 C 157.273438 -18.925781 156.96875 -16.421875 156.5625 -13.046875 C 156.15625 -9.671875 155.4375 -5.320312 154.40625 0 Z M 154.40625 0 "></path></g></g></g></svg><style>@media (prefers-color-scheme: light) { :root { filter: none; } }
@media (prefers-color-scheme: dark) { :root { filter: none; } }
</style></svg>