<!DOCTYPE svg PUBLIC "-//W3C//DTD SVG 1.1//EN" "http://www.w3.org/Graphics/SVG/1.1/DTD/svg11.dtd">
<!-- Uploaded to: SVG Repo, www.svgrepo.com, Transformed by: SVG Repo Mixer Tools -->
<svg fill="#0a56b3" version="1.1" id="Layer_1" xmlns="http://www.w3.org/2000/svg" xmlns:xlink="http://www.w3.org/1999/xlink" viewBox="0 0 512 512" xml:space="preserve" width="800px" height="800px">
<g id="SVGRepo_bgCarrier" stroke-width="0"/>
<g id="SVGRepo_tracerCarrier" stroke-linecap="round" stroke-linejoin="round"/>
<g id="SVGRepo_iconCarrier"> <g> <g> <path d="M458.419,17.86H53.581C24.037,17.86,0,41.897,0,71.442v369.116c0,29.545,24.037,53.581,53.581,53.581h404.837 c29.546,0,53.581-24.037,53.581-53.581V71.442C512,41.897,487.965,17.86,458.419,17.86z M476.279,440.558 c0,9.848-8.011,17.86-17.86,17.86H53.581c-9.848,0-17.86-8.012-17.86-17.86V160.744h440.558V440.558z M476.279,125.023H35.721 V71.442c0-9.848,8.012-17.86,17.86-17.86h404.837c9.849,0,17.86,8.012,17.86,17.86V125.023z"/> </g> </g> <g> <g> <rect x="256" y="71.442" width="202.419" height="35.721"/> </g> </g> <g> <g> <path d="M333.395,196.465v226.233h107.163V196.465H333.395z M404.837,386.977h-35.721v-59.535h35.721V386.977z M404.837,291.721 h-35.721v-59.535h35.721V291.721z"/> </g> </g> <g> <g> <path d="M71.442,196.465v226.233h238.14V196.465H71.442z M273.86,386.977H107.163V232.186H273.86V386.977z"/> </g> </g> <g> <g> <circle cx="71.442" cy="89.302" r="23.814"/> </g> </g> </g>
</svg>