<svg xmlns="http://www.w3.org/2000/svg" xmlns:xlink="http://www.w3.org/1999/xlink" width="500" zoomAndPan="magnify" viewBox="0 0 375 374.999991" height="500" preserveAspectRatio="xMidYMid meet" version="1.0"><defs><g/><clipPath id="d044966148"><path d="M 17.152344 241.632812 L 350.695312 241.632812 L 350.695312 344.757812 L 17.152344 344.757812 Z M 17.152344 241.632812 " clip-rule="nonzero"/></clipPath><clipPath id="662576854d"><path d="M 34.402344 241.632812 L 333.402344 241.632812 C 337.980469 241.632812 342.367188 243.449219 345.601562 246.683594 C 348.835938 249.917969 350.652344 254.308594 350.652344 258.882812 L 350.652344 327.507812 C 350.652344 332.082031 348.835938 336.46875 345.601562 339.703125 C 342.367188 342.9375 337.980469 344.757812 333.402344 344.757812 L 34.402344 344.757812 C 29.824219 344.757812 25.4375 342.9375 22.203125 339.703125 C 18.96875 336.46875 17.152344 332.082031 17.152344 327.507812 L 17.152344 258.882812 C 17.152344 254.308594 18.96875 249.917969 22.203125 246.683594 C 25.4375 243.449219 29.824219 241.632812 34.402344 241.632812 Z M 34.402344 241.632812 " clip-rule="nonzero"/></clipPath></defs><g fill="#ffffff" fill-opacity="1"><g transform="translate(30.576188, 340.668499)"><g><path d="M 33.484375 -23.328125 L 26.96875 0 L 21.453125 0 L 17.078125 -16.609375 L 12.5 0 L 7.015625 0.03125 L 0.734375 -23.328125 L 5.75 -23.328125 L 9.859375 -5.21875 L 14.609375 -23.328125 L 19.8125 -23.328125 L 24.296875 -5.3125 L 28.4375 -23.328125 Z M 33.484375 -23.328125 "/></g></g></g><g fill="#ffffff" fill-opacity="1"><g transform="translate(76.487931, 340.668499)"><g><path d="M 6.984375 -19.546875 L 6.984375 -13.703125 L 14.84375 -13.703125 L 14.84375 -10 L 6.984375 -10 L 6.984375 -3.8125 L 15.84375 -3.8125 L 15.84375 0 L 2.3125 0 L 2.3125 -23.359375 L 15.84375 -23.359375 L 15.84375 -19.546875 Z M 6.984375 -19.546875 "/></g></g></g><g fill="#ffffff" fill-opacity="1"><g transform="translate(105.962745, 340.668499)"><g><path d="M 15.546875 -11.96875 C 16.859375 -11.71875 17.9375 -11.054688 18.78125 -9.984375 C 19.625 -8.921875 20.046875 -7.695312 20.046875 -6.3125 C 20.046875 -5.0625 19.738281 -3.960938 19.125 -3.015625 C 18.519531 -2.078125 17.632812 -1.335938 16.46875 -0.796875 C 15.3125 -0.265625 13.941406 0 12.359375 0 L 2.3125 0 L 2.3125 -23.328125 L 11.9375 -23.328125 C 13.507812 -23.328125 14.867188 -23.070312 16.015625 -22.5625 C 17.171875 -22.050781 18.039062 -21.335938 18.625 -20.421875 C 19.21875 -19.503906 19.515625 -18.46875 19.515625 -17.3125 C 19.515625 -15.957031 19.148438 -14.820312 18.421875 -13.90625 C 17.703125 -12.988281 16.742188 -12.34375 15.546875 -11.96875 Z M 6.984375 -13.703125 L 11.265625 -13.703125 C 12.378906 -13.703125 13.234375 -13.953125 13.828125 -14.453125 C 14.429688 -14.953125 14.734375 -15.671875 14.734375 -16.609375 C 14.734375 -17.546875 14.429688 -18.269531 13.828125 -18.78125 C 13.234375 -19.289062 12.378906 -19.546875 11.265625 -19.546875 L 6.984375 -19.546875 Z M 11.703125 -3.8125 C 12.835938 -3.8125 13.722656 -4.078125 14.359375 -4.609375 C 14.992188 -5.148438 15.3125 -5.910156 15.3125 -6.890625 C 15.3125 -7.890625 14.972656 -8.671875 14.296875 -9.234375 C 13.628906 -9.804688 12.726562 -10.09375 11.59375 -10.09375 L 6.984375 -10.09375 L 6.984375 -3.8125 Z M 11.703125 -3.8125 "/></g></g></g><g fill="#ffffff" fill-opacity="1"><g transform="translate(139.145888, 340.668499)"><g/></g></g><g fill="#ffffff" fill-opacity="1"><g transform="translate(158.798623, 340.668499)"><g><path d="M 10.46875 -23.328125 C 12.914062 -23.328125 15.066406 -22.847656 16.921875 -21.890625 C 18.785156 -20.929688 20.222656 -19.566406 21.234375 -17.796875 C 22.253906 -16.023438 22.765625 -13.96875 22.765625 -11.625 C 22.765625 -9.289062 22.253906 -7.25 21.234375 -5.5 C 20.222656 -3.75 18.785156 -2.394531 16.921875 -1.4375 C 15.066406 -0.476562 12.914062 0 10.46875 0 L 2.3125 0 L 2.3125 -23.328125 Z M 10.296875 -3.984375 C 12.742188 -3.984375 14.632812 -4.648438 15.96875 -5.984375 C 17.3125 -7.316406 17.984375 -9.195312 17.984375 -11.625 C 17.984375 -14.0625 17.3125 -15.960938 15.96875 -17.328125 C 14.632812 -18.703125 12.742188 -19.390625 10.296875 -19.390625 L 6.984375 -19.390625 L 6.984375 -3.984375 Z M 10.296875 -3.984375 "/></g></g></g><g fill="#ffffff" fill-opacity="1"><g transform="translate(194.45399, 340.668499)"><g><path d="M 6.984375 -19.546875 L 6.984375 -13.703125 L 14.84375 -13.703125 L 14.84375 -10 L 6.984375 -10 L 6.984375 -3.8125 L 15.84375 -3.8125 L 15.84375 0 L 2.3125 0 L 2.3125 -23.359375 L 15.84375 -23.359375 L 15.84375 -19.546875 Z M 6.984375 -19.546875 "/></g></g></g><g fill="#ffffff" fill-opacity="1"><g transform="translate(223.928799, 340.668499)"><g><path d="M 10.359375 0.234375 C 8.734375 0.234375 7.269531 -0.0390625 5.96875 -0.59375 C 4.664062 -1.15625 3.632812 -1.957031 2.875 -3 C 2.113281 -4.050781 1.722656 -5.289062 1.703125 -6.71875 L 6.71875 -6.71875 C 6.78125 -5.757812 7.117188 -5 7.734375 -4.4375 C 8.347656 -3.882812 9.191406 -3.609375 10.265625 -3.609375 C 11.347656 -3.609375 12.203125 -3.867188 12.828125 -4.390625 C 13.453125 -4.921875 13.765625 -5.609375 13.765625 -6.453125 C 13.765625 -7.140625 13.550781 -7.707031 13.125 -8.15625 C 12.707031 -8.601562 12.179688 -8.953125 11.546875 -9.203125 C 10.910156 -9.460938 10.035156 -9.75 8.921875 -10.0625 C 7.410156 -10.507812 6.179688 -10.945312 5.234375 -11.375 C 4.285156 -11.8125 3.46875 -12.46875 2.78125 -13.34375 C 2.101562 -14.226562 1.765625 -15.40625 1.765625 -16.875 C 1.765625 -18.257812 2.109375 -19.460938 2.796875 -20.484375 C 3.492188 -21.515625 4.46875 -22.300781 5.71875 -22.84375 C 6.96875 -23.382812 8.394531 -23.65625 10 -23.65625 C 12.40625 -23.65625 14.359375 -23.070312 15.859375 -21.90625 C 17.359375 -20.738281 18.1875 -19.109375 18.34375 -17.015625 L 13.203125 -17.015625 C 13.160156 -17.816406 12.820312 -18.476562 12.1875 -19 C 11.550781 -19.519531 10.707031 -19.78125 9.65625 -19.78125 C 8.738281 -19.78125 8.007812 -19.546875 7.46875 -19.078125 C 6.925781 -18.609375 6.65625 -17.929688 6.65625 -17.046875 C 6.65625 -16.421875 6.859375 -15.898438 7.265625 -15.484375 C 7.679688 -15.078125 8.191406 -14.742188 8.796875 -14.484375 C 9.410156 -14.234375 10.273438 -13.941406 11.390625 -13.609375 C 12.910156 -13.160156 14.148438 -12.710938 15.109375 -12.265625 C 16.066406 -11.816406 16.890625 -11.144531 17.578125 -10.25 C 18.265625 -9.363281 18.609375 -8.195312 18.609375 -6.75 C 18.609375 -5.5 18.285156 -4.335938 17.640625 -3.265625 C 16.992188 -2.203125 16.046875 -1.351562 14.796875 -0.71875 C 13.554688 -0.0820312 12.078125 0.234375 10.359375 0.234375 Z M 10.359375 0.234375 "/></g></g></g><g fill="#ffffff" fill-opacity="1"><g transform="translate(255.976043, 340.668499)"><g><path d="M 6.984375 -23.328125 L 6.984375 0 L 2.3125 0 L 2.3125 -23.328125 Z M 6.984375 -23.328125 "/></g></g></g><g fill="#ffffff" fill-opacity="1"><g transform="translate(276.965107, 340.668499)"><g><path d="M 18.546875 -16.3125 C 18.015625 -17.289062 17.28125 -18.035156 16.34375 -18.546875 C 15.40625 -19.054688 14.3125 -19.3125 13.0625 -19.3125 C 11.6875 -19.3125 10.460938 -19 9.390625 -18.375 C 8.316406 -17.757812 7.476562 -16.867188 6.875 -15.703125 C 6.28125 -14.546875 5.984375 -13.210938 5.984375 -11.703125 C 5.984375 -10.140625 6.289062 -8.773438 6.90625 -7.609375 C 7.519531 -6.453125 8.367188 -5.5625 9.453125 -4.9375 C 10.546875 -4.320312 11.816406 -4.015625 13.265625 -4.015625 C 15.046875 -4.015625 16.503906 -4.484375 17.640625 -5.421875 C 18.773438 -6.367188 19.523438 -7.691406 19.890625 -9.390625 L 11.859375 -9.390625 L 11.859375 -12.96875 L 24.5 -12.96875 L 24.5 -8.890625 C 24.1875 -7.265625 23.515625 -5.757812 22.484375 -4.375 C 21.460938 -3 20.144531 -1.890625 18.53125 -1.046875 C 16.914062 -0.210938 15.101562 0.203125 13.09375 0.203125 C 10.84375 0.203125 8.8125 -0.300781 7 -1.3125 C 5.1875 -2.332031 3.757812 -3.742188 2.71875 -5.546875 C 1.6875 -7.347656 1.171875 -9.398438 1.171875 -11.703125 C 1.171875 -13.992188 1.6875 -16.046875 2.71875 -17.859375 C 3.757812 -19.679688 5.1875 -21.097656 7 -22.109375 C 8.8125 -23.117188 10.832031 -23.625 13.0625 -23.625 C 15.695312 -23.625 17.984375 -22.984375 19.921875 -21.703125 C 21.859375 -20.421875 23.195312 -18.625 23.9375 -16.3125 Z M 18.546875 -16.3125 "/></g></g></g><g fill="#ffffff" fill-opacity="1"><g transform="translate(314.324293, 340.668499)"><g><path d="M 22.265625 0 L 17.578125 0 L 6.984375 -16.015625 L 6.984375 0 L 2.3125 0 L 2.3125 -23.359375 L 6.984375 -23.359375 L 17.578125 -7.3125 L 17.578125 -23.359375 L 22.265625 -23.359375 Z M 22.265625 0 "/></g></g></g><g fill="#000000" fill-opacity="1"><g transform="translate(188.095466, 224.629409)"><g><path d="M 40.84375 0 C 33.207031 0 26.222656 -1.90625 19.890625 -5.71875 C 13.566406 -9.539062 8.539062 -14.613281 4.8125 -20.9375 C 1.082031 -27.269531 -0.78125 -34.164062 -0.78125 -41.625 C -0.78125 -47.863281 0.5625 -53.628906 3.25 -58.921875 C 5.9375 -64.210938 9.1875 -69.023438 13 -73.359375 L 54.625 -114.71875 C 55.320312 -115.414062 55.410156 -116.109375 54.890625 -116.796875 C 54.367188 -117.492188 53.675781 -117.671875 52.8125 -117.328125 L 31.484375 -102.234375 C 23.328125 -104.140625 16.644531 -107.476562 11.4375 -112.25 C 6.238281 -117.019531 2.507812 -122.523438 0.25 -128.765625 C -2 -135.015625 -2.816406 -141.429688 -2.203125 -148.015625 C -1.597656 -154.609375 0.390625 -160.765625 3.765625 -166.484375 C 7.148438 -172.210938 11.875 -176.8125 17.9375 -180.28125 C 24.007812 -183.75 31.382812 -185.484375 40.0625 -185.484375 L 104.0625 -185.484375 C 116.195312 -185.484375 126.46875 -183.3125 134.875 -178.96875 C 143.289062 -174.632812 149.925781 -168.910156 154.78125 -161.796875 C 159.632812 -154.691406 162.664062 -146.890625 163.875 -138.390625 C 165.09375 -129.890625 164.617188 -121.4375 162.453125 -113.03125 C 160.285156 -104.625 156.335938 -96.863281 150.609375 -89.75 C 144.890625 -82.632812 137.566406 -76.910156 128.640625 -72.578125 C 119.710938 -68.242188 109.085938 -66.078125 96.765625 -66.078125 L 95.46875 -66.078125 C 103.789062 -63.816406 112.632812 -63.46875 122 -65.03125 C 131.363281 -66.59375 139.691406 -69.800781 146.984375 -74.65625 C 153.046875 -70.320312 157.289062 -65.550781 159.71875 -60.34375 C 162.15625 -55.144531 163.375 -48.90625 163.375 -41.625 C 163.375 -35.550781 161.507812 -29.257812 157.78125 -22.75 C 154.050781 -16.25 149.0625 -10.832031 142.8125 -6.5 C 136.570312 -2.164062 129.632812 0 122 0 Z M 40.84375 0 "/></g></g></g><g fill="#000000" fill-opacity="1"><g transform="translate(17.889164, 224.582316)"><g><path d="M 0 -143.328125 C 0 -151.148438 1.78125 -158.234375 5.34375 -164.578125 C 8.90625 -170.921875 13.851562 -175.957031 20.1875 -179.6875 C 26.53125 -183.425781 33.785156 -185.296875 41.953125 -185.296875 L 109.984375 -185.296875 C 118.140625 -185.296875 125.300781 -183.253906 131.46875 -179.171875 C 137.644531 -175.085938 142.378906 -169.785156 145.671875 -163.265625 C 148.972656 -156.753906 150.582031 -149.804688 150.5 -142.421875 C 150.414062 -135.035156 148.285156 -128.039062 144.109375 -121.4375 C 139.941406 -114.664062 134.816406 -109.929688 128.734375 -107.234375 C 122.660156 -104.546875 115.710938 -103.03125 107.890625 -102.6875 C 107.023438 -102.6875 106.59375 -102.207031 106.59375 -101.25 C 106.59375 -100.289062 107.023438 -99.640625 107.890625 -99.296875 C 115.015625 -98.421875 121.960938 -98.894531 128.734375 -100.71875 C 135.515625 -102.550781 141.507812 -106.160156 146.71875 -111.546875 C 150.195312 -103.898438 151.328125 -95.601562 150.109375 -86.65625 C 148.890625 -77.707031 145.414062 -70.363281 139.6875 -64.625 C 135.863281 -60.28125 131.429688 -57.195312 126.390625 -55.375 C 121.359375 -53.550781 116.0625 -52.289062 110.5 -51.59375 C 109.632812 -51.59375 109.203125 -51.070312 109.203125 -50.03125 C 109.203125 -48.988281 109.632812 -48.46875 110.5 -48.46875 C 117.269531 -47.78125 123.867188 -48.300781 130.296875 -50.03125 C 136.734375 -51.769531 142.382812 -55.507812 147.25 -61.25 C 148.632812 -58.988281 149.628906 -56.46875 150.234375 -53.6875 C 150.847656 -50.90625 151.15625 -46.734375 151.15625 -41.171875 C 151.15625 -37.179688 150.375 -32.796875 148.8125 -28.015625 C 147.25 -23.234375 144.769531 -18.710938 141.375 -14.453125 C 137.988281 -10.203125 133.734375 -6.726562 128.609375 -4.03125 C 123.484375 -1.34375 117.273438 0 109.984375 0 L 41.4375 0 C 33.789062 0 26.796875 -1.863281 20.453125 -5.59375 C 14.117188 -9.332031 9.125 -14.328125 5.46875 -20.578125 C 1.820312 -26.835938 0 -33.703125 0 -41.171875 Z M 0 -143.328125 "/></g></g></g><g clip-path="url(#d044966148)"><g clip-path="url(#662576854d)"><path fill="#3d73a2" d="M 17.152344 241.632812 L 350.695312 241.632812 L 350.695312 344.757812 L 17.152344 344.757812 Z M 17.152344 241.632812 " fill-opacity="1" fill-rule="nonzero"/></g></g><g fill="#000000" fill-opacity="1"><g transform="translate(36.443945, 311.413111)"><g><path d="M 34.484375 -13.96875 L 37.234375 -27.109375 C 37.804688 -29.804688 38.617188 -31.992188 39.671875 -33.671875 C 40.722656 -35.347656 41.960938 -36.570312 43.390625 -37.34375 C 44.828125 -38.113281 46.40625 -38.5 48.125 -38.5 L 39.21875 -0.9375 C 39.050781 -0.3125 38.644531 0 38 0 L 32.34375 0 C 31.695312 0 31.289062 -0.3125 31.125 -0.9375 L 24.234375 -23.8125 L 17.21875 -0.9375 C 17.050781 -0.3125 16.644531 0 16 0 L 10.34375 0 C 9.695312 0 9.289062 -0.3125 9.125 -0.9375 L 0.71875 -36.1875 C 0.644531 -36.550781 0.691406 -36.84375 0.859375 -37.0625 C 1.035156 -37.289062 1.316406 -37.40625 1.703125 -37.40625 L 7.96875 -37.40625 C 8.664062 -37.40625 9.070312 -37.070312 9.1875 -36.40625 L 13.859375 -14.03125 L 17.984375 -27.71875 C 18.585938 -29.71875 19.210938 -31.359375 19.859375 -32.640625 C 20.515625 -33.921875 21.207031 -34.945312 21.9375 -35.71875 C 22.675781 -36.488281 23.453125 -37.082031 24.265625 -37.5 C 25.085938 -37.925781 25.960938 -38.257812 26.890625 -38.5 Z M 34.484375 -13.96875 "/></g></g></g><g fill="#000000" fill-opacity="1"><g transform="translate(84.889198, 311.413111)"><g><path d="M 15.625 -25.140625 C 17.46875 -25.140625 19.195312 -24.863281 20.8125 -24.3125 C 22.425781 -23.757812 23.851562 -22.957031 25.09375 -21.90625 C 26.332031 -20.851562 27.300781 -19.550781 28 -18 C 28.695312 -16.445312 29.046875 -14.664062 29.046875 -12.65625 L 29.046875 -11.65625 C 29.046875 -10.925781 28.675781 -10.5625 27.9375 -10.5625 L 10.234375 -10.5625 C 10.335938 -8.894531 10.847656 -7.550781 11.765625 -6.53125 C 12.679688 -5.507812 13.910156 -5 15.453125 -5 C 16.660156 -5 17.660156 -5.242188 18.453125 -5.734375 C 19.242188 -6.234375 19.800781 -6.851562 20.125 -7.59375 C 20.269531 -7.90625 20.4375 -8.140625 20.625 -8.296875 C 20.8125 -8.453125 21.050781 -8.53125 21.34375 -8.53125 L 27.4375 -8.53125 C 27.820312 -8.53125 28.109375 -8.414062 28.296875 -8.1875 C 28.492188 -7.957031 28.519531 -7.648438 28.375 -7.265625 C 27.738281 -5.429688 26.800781 -3.910156 25.5625 -2.703125 C 24.320312 -1.503906 22.859375 -0.609375 21.171875 -0.015625 C 19.484375 0.578125 17.632812 0.875 15.625 0.875 C 13.53125 0.875 11.613281 0.578125 9.875 -0.015625 C 8.144531 -0.609375 6.65625 -1.46875 5.40625 -2.59375 C 4.164062 -3.726562 3.203125 -5.097656 2.515625 -6.703125 C 1.828125 -8.304688 1.484375 -10.101562 1.484375 -12.09375 C 1.484375 -14.070312 1.835938 -15.863281 2.546875 -17.46875 C 3.253906 -19.070312 4.238281 -20.441406 5.5 -21.578125 C 6.757812 -22.722656 8.25 -23.601562 9.96875 -24.21875 C 11.695312 -24.832031 13.582031 -25.140625 15.625 -25.140625 Z M 10.34375 -15.015625 L 20.296875 -15.015625 C 20.222656 -16.335938 19.742188 -17.421875 18.859375 -18.265625 C 17.984375 -19.109375 16.8125 -19.53125 15.34375 -19.53125 C 13.820312 -19.53125 12.664062 -19.109375 11.875 -18.265625 C 11.09375 -17.421875 10.582031 -16.335938 10.34375 -15.015625 Z M 10.34375 -15.015625 "/></g></g></g><g fill="#000000" fill-opacity="1"><g transform="translate(115.518038, 311.413111)"><g><path d="M 19.1875 -25.140625 C 20.988281 -25.140625 22.625 -24.820312 24.09375 -24.1875 C 25.570312 -23.550781 26.847656 -22.65625 27.921875 -21.5 C 28.992188 -20.34375 29.820312 -18.972656 30.40625 -17.390625 C 31 -15.804688 31.296875 -14.0625 31.296875 -12.15625 C 31.296875 -10.226562 31 -8.46875 30.40625 -6.875 C 29.820312 -5.28125 28.992188 -3.90625 27.921875 -2.75 C 26.847656 -1.59375 25.570312 -0.695312 24.09375 -0.0625 C 22.625 0.5625 20.988281 0.875 19.1875 0.875 C 17.195312 0.875 15.390625 0.476562 13.765625 -0.3125 C 12.140625 -1.113281 10.785156 -2.226562 9.703125 -3.65625 C 8.367188 -0.851562 6.015625 0.546875 2.640625 0.546875 L 2.640625 -41.25 C 5.316406 -40.695312 7.359375 -39.523438 8.765625 -37.734375 C 10.179688 -35.953125 10.890625 -33.640625 10.890625 -30.796875 L 10.890625 -21.9375 C 11.929688 -22.96875 13.15625 -23.757812 14.5625 -24.3125 C 15.976562 -24.863281 17.519531 -25.140625 19.1875 -25.140625 Z M 16.671875 -5.71875 C 17.785156 -5.71875 18.773438 -5.988281 19.640625 -6.53125 C 20.515625 -7.070312 21.195312 -7.820312 21.6875 -8.78125 C 22.1875 -9.75 22.4375 -10.851562 22.4375 -12.09375 C 22.4375 -13.34375 22.1875 -14.445312 21.6875 -15.40625 C 21.195312 -16.375 20.515625 -17.128906 19.640625 -17.671875 C 18.773438 -18.210938 17.785156 -18.484375 16.671875 -18.484375 C 15.546875 -18.484375 14.546875 -18.210938 13.671875 -17.671875 C 12.804688 -17.128906 12.125 -16.375 11.625 -15.40625 C 11.132812 -14.445312 10.890625 -13.34375 10.890625 -12.09375 C 10.890625 -10.851562 11.132812 -9.75 11.625 -8.78125 C 12.125 -7.820312 12.804688 -7.070312 13.671875 -6.53125 C 14.546875 -5.988281 15.546875 -5.71875 16.671875 -5.71875 Z M 16.671875 -5.71875 "/></g></g></g><g fill="#000000" fill-opacity="1"><g transform="translate(148.401429, 311.413111)"><g/></g></g><g fill="#000000" fill-opacity="1"><g transform="translate(162.69855, 311.413111)"><g><path d="M 12.984375 0 L 4.0625 0 C 3.332031 0 2.96875 -0.363281 2.96875 -1.09375 L 2.96875 -36.296875 C 2.96875 -37.035156 3.332031 -37.40625 4.0625 -37.40625 L 12.984375 -37.40625 C 16.441406 -37.40625 19.441406 -36.929688 21.984375 -35.984375 C 24.523438 -35.035156 26.628906 -33.707031 28.296875 -32 C 29.960938 -30.300781 31.195312 -28.316406 32 -26.046875 C 32.8125 -23.785156 33.21875 -21.335938 33.21875 -18.703125 C 33.21875 -16.054688 32.8125 -13.601562 32 -11.34375 C 31.195312 -9.082031 29.96875 -7.097656 28.3125 -5.390625 C 26.65625 -3.679688 24.554688 -2.351562 22.015625 -1.40625 C 19.472656 -0.46875 16.460938 0 12.984375 0 Z M 11.21875 -29.921875 L 11.21875 -7.484375 L 13.75 -7.484375 C 15.75 -7.484375 17.457031 -7.769531 18.875 -8.34375 C 20.300781 -8.925781 21.460938 -9.726562 22.359375 -10.75 C 23.253906 -11.78125 23.910156 -12.972656 24.328125 -14.328125 C 24.753906 -15.679688 24.96875 -17.140625 24.96875 -18.703125 C 24.96875 -20.253906 24.753906 -21.707031 24.328125 -23.0625 C 23.910156 -24.425781 23.253906 -25.617188 22.359375 -26.640625 C 21.472656 -27.671875 20.320312 -28.472656 18.90625 -29.046875 C 17.488281 -29.628906 15.769531 -29.921875 13.75 -29.921875 Z M 11.21875 -29.921875 "/></g></g></g><g fill="#000000" fill-opacity="1"><g transform="translate(197.396567, 311.413111)"><g><path d="M 15.625 -25.140625 C 17.46875 -25.140625 19.195312 -24.863281 20.8125 -24.3125 C 22.425781 -23.757812 23.851562 -22.957031 25.09375 -21.90625 C 26.332031 -20.851562 27.300781 -19.550781 28 -18 C 28.695312 -16.445312 29.046875 -14.664062 29.046875 -12.65625 L 29.046875 -11.65625 C 29.046875 -10.925781 28.675781 -10.5625 27.9375 -10.5625 L 10.234375 -10.5625 C 10.335938 -8.894531 10.847656 -7.550781 11.765625 -6.53125 C 12.679688 -5.507812 13.910156 -5 15.453125 -5 C 16.660156 -5 17.660156 -5.242188 18.453125 -5.734375 C 19.242188 -6.234375 19.800781 -6.851562 20.125 -7.59375 C 20.269531 -7.90625 20.4375 -8.140625 20.625 -8.296875 C 20.8125 -8.453125 21.050781 -8.53125 21.34375 -8.53125 L 27.4375 -8.53125 C 27.820312 -8.53125 28.109375 -8.414062 28.296875 -8.1875 C 28.492188 -7.957031 28.519531 -7.648438 28.375 -7.265625 C 27.738281 -5.429688 26.800781 -3.910156 25.5625 -2.703125 C 24.320312 -1.503906 22.859375 -0.609375 21.171875 -0.015625 C 19.484375 0.578125 17.632812 0.875 15.625 0.875 C 13.53125 0.875 11.613281 0.578125 9.875 -0.015625 C 8.144531 -0.609375 6.65625 -1.46875 5.40625 -2.59375 C 4.164062 -3.726562 3.203125 -5.097656 2.515625 -6.703125 C 1.828125 -8.304688 1.484375 -10.101562 1.484375 -12.09375 C 1.484375 -14.070312 1.835938 -15.863281 2.546875 -17.46875 C 3.253906 -19.070312 4.238281 -20.441406 5.5 -21.578125 C 6.757812 -22.722656 8.25 -23.601562 9.96875 -24.21875 C 11.695312 -24.832031 13.582031 -25.140625 15.625 -25.140625 Z M 10.34375 -15.015625 L 20.296875 -15.015625 C 20.222656 -16.335938 19.742188 -17.421875 18.859375 -18.265625 C 17.984375 -19.109375 16.8125 -19.53125 15.34375 -19.53125 C 13.820312 -19.53125 12.664062 -19.109375 11.875 -18.265625 C 11.09375 -17.421875 10.582031 -16.335938 10.34375 -15.015625 Z M 10.34375 -15.015625 "/></g></g></g><g fill="#000000" fill-opacity="1"><g transform="translate(228.025417, 311.413111)"><g><path d="M 14.625 0.875 C 12.300781 0.875 10.207031 0.566406 8.34375 -0.046875 C 6.488281 -0.660156 4.957031 -1.609375 3.75 -2.890625 C 2.550781 -4.171875 1.78125 -5.828125 1.4375 -7.859375 C 1.375 -8.234375 1.441406 -8.519531 1.640625 -8.71875 C 1.847656 -8.914062 2.125 -9.015625 2.46875 -9.015625 L 8.46875 -9.015625 C 8.800781 -9.015625 9.054688 -8.921875 9.234375 -8.734375 C 9.421875 -8.554688 9.550781 -8.300781 9.625 -7.96875 C 9.789062 -7.332031 10.078125 -6.804688 10.484375 -6.390625 C 10.898438 -5.984375 11.367188 -5.664062 11.890625 -5.4375 C 12.410156 -5.207031 12.929688 -5.050781 13.453125 -4.96875 C 13.984375 -4.882812 14.429688 -4.84375 14.796875 -4.84375 C 16.097656 -4.84375 17.054688 -5.066406 17.671875 -5.515625 C 18.285156 -5.960938 18.59375 -6.523438 18.59375 -7.203125 C 18.59375 -7.773438 18.363281 -8.222656 17.90625 -8.546875 C 17.445312 -8.878906 16.832031 -9.132812 16.0625 -9.3125 C 15.289062 -9.5 14.421875 -9.660156 13.453125 -9.796875 C 12.492188 -9.941406 11.5 -10.101562 10.46875 -10.28125 C 9.445312 -10.46875 8.453125 -10.710938 7.484375 -11.015625 C 6.523438 -11.316406 5.660156 -11.722656 4.890625 -12.234375 C 4.117188 -12.742188 3.503906 -13.410156 3.046875 -14.234375 C 2.585938 -15.066406 2.359375 -16.097656 2.359375 -17.328125 C 2.359375 -18.878906 2.796875 -20.242188 3.671875 -21.421875 C 4.554688 -22.597656 5.851562 -23.507812 7.5625 -24.15625 C 9.269531 -24.8125 11.367188 -25.140625 13.859375 -25.140625 C 17.085938 -25.140625 19.722656 -24.554688 21.765625 -23.390625 C 23.804688 -22.222656 25.128906 -20.457031 25.734375 -18.09375 C 25.828125 -17.707031 25.78125 -17.410156 25.59375 -17.203125 C 25.414062 -16.992188 25.132812 -16.890625 24.75 -16.890625 L 18.859375 -16.890625 C 18.296875 -16.890625 17.875 -17.195312 17.59375 -17.8125 C 17.269531 -18.53125 16.789062 -19.078125 16.15625 -19.453125 C 15.519531 -19.828125 14.609375 -20.015625 13.421875 -20.015625 C 12.460938 -20.015625 11.765625 -19.851562 11.328125 -19.53125 C 10.890625 -19.21875 10.671875 -18.847656 10.671875 -18.421875 C 10.671875 -17.890625 10.898438 -17.46875 11.359375 -17.15625 C 11.816406 -16.84375 12.429688 -16.585938 13.203125 -16.390625 C 13.972656 -16.203125 14.835938 -16.035156 15.796875 -15.890625 C 16.765625 -15.742188 17.757812 -15.566406 18.78125 -15.359375 C 19.8125 -15.160156 20.804688 -14.894531 21.765625 -14.5625 C 22.722656 -14.238281 23.585938 -13.796875 24.359375 -13.234375 C 25.128906 -12.679688 25.742188 -11.976562 26.203125 -11.125 C 26.660156 -10.269531 26.890625 -9.21875 26.890625 -7.96875 C 26.890625 -6.101562 26.40625 -4.507812 25.4375 -3.1875 C 24.46875 -1.863281 23.066406 -0.851562 21.234375 -0.15625 C 19.410156 0.53125 17.207031 0.875 14.625 0.875 Z M 14.625 0.875 "/></g></g></g><g fill="#000000" fill-opacity="1"><g transform="translate(256.454687, 311.413111)"><g><path d="M 6.375 -29.046875 C 5.375 -29.046875 4.410156 -29.207031 3.484375 -29.53125 C 2.554688 -29.863281 1.796875 -30.359375 1.203125 -31.015625 C 0.617188 -31.679688 0.328125 -32.507812 0.328125 -33.5 C 0.328125 -34.46875 0.617188 -35.28125 1.203125 -35.9375 C 1.796875 -36.601562 2.554688 -37.101562 3.484375 -37.4375 C 4.410156 -37.78125 5.375 -37.953125 6.375 -37.953125 C 7.363281 -37.953125 8.320312 -37.78125 9.25 -37.4375 C 10.175781 -37.101562 10.9375 -36.601562 11.53125 -35.9375 C 12.132812 -35.28125 12.4375 -34.46875 12.4375 -33.5 C 12.4375 -32.507812 12.132812 -31.679688 11.53125 -31.015625 C 10.9375 -30.359375 10.175781 -29.863281 9.25 -29.53125 C 8.320312 -29.207031 7.363281 -29.046875 6.375 -29.046875 Z M 9.796875 0 L 3.734375 0 C 3.003906 0 2.640625 -0.363281 2.640625 -1.09375 L 2.640625 -24.8125 C 5.316406 -24.257812 7.359375 -23.085938 8.765625 -21.296875 C 10.179688 -19.515625 10.890625 -17.203125 10.890625 -14.359375 L 10.890625 -1.09375 C 10.890625 -0.363281 10.523438 0 9.796875 0 Z M 9.796875 0 "/></g></g></g><g fill="#000000" fill-opacity="1"><g transform="translate(269.652048, 311.413111)"><g><path d="M 23.1875 -20.59375 C 24.519531 -23.40625 26.875 -24.8125 30.25 -24.8125 L 30.25 2.140625 C 30.25 4.796875 29.648438 6.984375 28.453125 8.703125 C 27.265625 10.421875 25.613281 11.691406 23.5 12.515625 C 21.394531 13.335938 18.96875 13.75 16.21875 13.75 C 14.53125 13.75 12.894531 13.578125 11.3125 13.234375 C 9.726562 12.898438 8.289062 12.363281 7 11.625 C 5.707031 10.894531 4.632812 9.921875 3.78125 8.703125 C 2.925781 7.484375 2.378906 5.992188 2.140625 4.234375 C 2.085938 3.867188 2.160156 3.582031 2.359375 3.375 C 2.566406 3.175781 2.84375 3.078125 3.1875 3.078125 L 9.234375 3.078125 C 9.878906 3.078125 10.285156 3.425781 10.453125 4.125 C 10.722656 5.300781 11.359375 6.179688 12.359375 6.765625 C 13.359375 7.347656 14.679688 7.640625 16.328125 7.640625 C 18.148438 7.640625 19.550781 7.195312 20.53125 6.3125 C 21.507812 5.4375 22 4.03125 22 2.09375 L 22 -2.3125 C 20.957031 -1.300781 19.734375 -0.519531 18.328125 0.03125 C 16.921875 0.59375 15.375 0.875 13.6875 0.875 C 11.914062 0.875 10.285156 0.5625 8.796875 -0.0625 C 7.316406 -0.695312 6.039062 -1.59375 4.96875 -2.75 C 3.894531 -3.90625 3.0625 -5.28125 2.46875 -6.875 C 1.882812 -8.46875 1.59375 -10.226562 1.59375 -12.15625 C 1.59375 -14.0625 1.882812 -15.804688 2.46875 -17.390625 C 3.0625 -18.972656 3.894531 -20.34375 4.96875 -21.5 C 6.039062 -22.65625 7.316406 -23.550781 8.796875 -24.1875 C 10.285156 -24.820312 11.914062 -25.140625 13.6875 -25.140625 C 15.707031 -25.140625 17.53125 -24.738281 19.15625 -23.9375 C 20.78125 -23.144531 22.125 -22.03125 23.1875 -20.59375 Z M 16.21875 -5.71875 C 17.34375 -5.71875 18.335938 -5.988281 19.203125 -6.53125 C 20.078125 -7.070312 20.757812 -7.820312 21.25 -8.78125 C 21.75 -9.75 22 -10.851562 22 -12.09375 C 22 -13.34375 21.75 -14.445312 21.25 -15.40625 C 20.757812 -16.375 20.078125 -17.128906 19.203125 -17.671875 C 18.335938 -18.210938 17.34375 -18.484375 16.21875 -18.484375 C 15.101562 -18.484375 14.109375 -18.210938 13.234375 -17.671875 C 12.367188 -17.128906 11.6875 -16.375 11.1875 -15.40625 C 10.695312 -14.445312 10.453125 -13.34375 10.453125 -12.09375 C 10.453125 -10.851562 10.695312 -9.75 11.1875 -8.78125 C 11.6875 -7.820312 12.367188 -7.070312 13.234375 -6.53125 C 14.109375 -5.988281 15.101562 -5.71875 16.21875 -5.71875 Z M 16.21875 -5.71875 "/></g></g></g><g fill="#000000" fill-opacity="1"><g transform="translate(302.590419, 311.413111)"><g><path d="M 18.265625 -25.140625 C 20.421875 -25.140625 22.164062 -24.675781 23.5 -23.75 C 24.84375 -22.820312 25.828125 -21.523438 26.453125 -19.859375 C 27.078125 -18.203125 27.390625 -16.273438 27.390625 -14.078125 L 27.390625 -1.09375 C 27.390625 -0.363281 27.023438 0 26.296875 0 L 20.234375 0 C 19.503906 0 19.140625 -0.363281 19.140625 -1.09375 L 19.140625 -14.078125 C 19.140625 -15.503906 18.847656 -16.601562 18.265625 -17.375 C 17.691406 -18.144531 16.753906 -18.53125 15.453125 -18.53125 C 14.273438 -18.53125 13.257812 -18.097656 12.40625 -17.234375 C 11.5625 -16.378906 11.054688 -15.191406 10.890625 -13.671875 L 10.890625 -1.09375 C 10.890625 -0.363281 10.523438 0 9.796875 0 L 3.734375 0 C 3.003906 0 2.640625 -0.363281 2.640625 -1.09375 L 2.640625 -24.8125 C 4.273438 -24.476562 5.671875 -23.90625 6.828125 -23.09375 C 7.992188 -22.289062 8.914062 -21.273438 9.59375 -20.046875 C 10.84375 -21.898438 12.203125 -23.210938 13.671875 -23.984375 C 15.140625 -24.753906 16.671875 -25.140625 18.265625 -25.140625 Z M 18.265625 -25.140625 "/></g></g></g></svg>