<svg xmlns="http://www.w3.org/2000/svg" xmlns:xlink="http://www.w3.org/1999/xlink" width="500" zoomAndPan="magnify" viewBox="0 0 375 374.999991" height="500" preserveAspectRatio="xMidYMid meet" version="1.0"><defs><g/><clipPath id="7847549dc1"><path d="M 16.941406 242.21875 L 357 242.21875 L 357 344.785156 L 16.941406 344.785156 Z M 16.941406 242.21875 " clip-rule="nonzero"/></clipPath><clipPath id="07b01cbb5b"><path d="M 34.191406 242.21875 L 339.550781 242.21875 C 344.125 242.21875 348.511719 244.039062 351.746094 247.273438 C 354.980469 250.507812 356.800781 254.894531 356.800781 259.46875 L 356.800781 327.535156 C 356.800781 332.113281 354.980469 336.5 351.746094 339.734375 C 348.511719 342.96875 344.125 344.785156 339.550781 344.785156 L 34.191406 344.785156 C 29.613281 344.785156 25.226562 342.96875 21.992188 339.734375 C 18.757812 336.5 16.941406 332.113281 16.941406 327.535156 L 16.941406 259.46875 C 16.941406 254.894531 18.757812 250.507812 21.992188 247.273438 C 25.226562 244.039062 29.613281 242.21875 34.191406 242.21875 Z M 34.191406 242.21875 " clip-rule="nonzero"/></clipPath></defs><g fill="#ffffff" fill-opacity="1"><g transform="translate(30.291951, 340.720392)"><g><path d="M 33.3125 -23.203125 L 26.828125 0 L 21.34375 0 L 16.984375 -16.53125 L 12.4375 0 L 6.984375 0.03125 L 0.734375 -23.203125 L 5.71875 -23.203125 L 9.8125 -5.1875 L 14.53125 -23.203125 L 19.71875 -23.203125 L 24.171875 -5.28125 L 28.296875 -23.203125 Z M 33.3125 -23.203125 "/></g></g></g><g fill="#ffffff" fill-opacity="1"><g transform="translate(75.954909, 340.720392)"><g><path d="M 6.953125 -19.453125 L 6.953125 -13.625 L 14.765625 -13.625 L 14.765625 -9.9375 L 6.953125 -9.9375 L 6.953125 -3.796875 L 15.765625 -3.796875 L 15.765625 0 L 2.296875 0 L 2.296875 -23.234375 L 15.765625 -23.234375 L 15.765625 -19.453125 Z M 6.953125 -19.453125 "/></g></g></g><g fill="#ffffff" fill-opacity="1"><g transform="translate(105.270007, 340.720392)"><g><path d="M 15.46875 -11.90625 C 16.769531 -11.65625 17.84375 -11 18.6875 -9.9375 C 19.53125 -8.875 19.953125 -7.65625 19.953125 -6.28125 C 19.953125 -5.039062 19.644531 -3.945312 19.03125 -3 C 18.425781 -2.0625 17.546875 -1.328125 16.390625 -0.796875 C 15.234375 -0.265625 13.867188 0 12.296875 0 L 2.296875 0 L 2.296875 -23.203125 L 11.875 -23.203125 C 13.445312 -23.203125 14.800781 -22.945312 15.9375 -22.4375 C 17.082031 -21.925781 17.945312 -21.21875 18.53125 -20.3125 C 19.125 -19.40625 19.421875 -18.375 19.421875 -17.21875 C 19.421875 -15.863281 19.054688 -14.734375 18.328125 -13.828125 C 17.609375 -12.921875 16.65625 -12.28125 15.46875 -11.90625 Z M 6.953125 -13.625 L 11.203125 -13.625 C 12.316406 -13.625 13.171875 -13.875 13.765625 -14.375 C 14.359375 -14.875 14.65625 -15.59375 14.65625 -16.53125 C 14.65625 -17.457031 14.359375 -18.175781 13.765625 -18.6875 C 13.171875 -19.195312 12.316406 -19.453125 11.203125 -19.453125 L 6.953125 -19.453125 Z M 11.640625 -3.796875 C 12.765625 -3.796875 13.644531 -4.0625 14.28125 -4.59375 C 14.914062 -5.125 15.234375 -5.875 15.234375 -6.84375 C 15.234375 -7.84375 14.898438 -8.625 14.234375 -9.1875 C 13.566406 -9.757812 12.664062 -10.046875 11.53125 -10.046875 L 6.953125 -10.046875 L 6.953125 -3.796875 Z M 11.640625 -3.796875 "/></g></g></g><g fill="#ffffff" fill-opacity="1"><g transform="translate(138.273338, 340.720392)"><g/></g></g><g fill="#ffffff" fill-opacity="1"><g transform="translate(157.819581, 340.720392)"><g><path d="M 10.40625 -23.203125 C 12.84375 -23.203125 14.988281 -22.722656 16.84375 -21.765625 C 18.695312 -20.816406 20.125 -19.460938 21.125 -17.703125 C 22.132812 -15.941406 22.640625 -13.898438 22.640625 -11.578125 C 22.640625 -9.242188 22.132812 -7.207031 21.125 -5.46875 C 20.125 -3.726562 18.695312 -2.378906 16.84375 -1.421875 C 14.988281 -0.472656 12.84375 0 10.40625 0 L 2.296875 0 L 2.296875 -23.203125 Z M 10.234375 -3.953125 C 12.679688 -3.953125 14.566406 -4.617188 15.890625 -5.953125 C 17.222656 -7.285156 17.890625 -9.160156 17.890625 -11.578125 C 17.890625 -13.984375 17.222656 -15.867188 15.890625 -17.234375 C 14.566406 -18.597656 12.679688 -19.28125 10.234375 -19.28125 L 6.953125 -19.28125 L 6.953125 -3.953125 Z M 10.234375 -3.953125 "/></g></g></g><g fill="#ffffff" fill-opacity="1"><g transform="translate(193.28174, 340.720392)"><g><path d="M 6.953125 -19.453125 L 6.953125 -13.625 L 14.765625 -13.625 L 14.765625 -9.9375 L 6.953125 -9.9375 L 6.953125 -3.796875 L 15.765625 -3.796875 L 15.765625 0 L 2.296875 0 L 2.296875 -23.234375 L 15.765625 -23.234375 L 15.765625 -19.453125 Z M 6.953125 -19.453125 "/></g></g></g><g fill="#ffffff" fill-opacity="1"><g transform="translate(222.596833, 340.720392)"><g><path d="M 10.3125 0.234375 C 8.6875 0.234375 7.222656 -0.0390625 5.921875 -0.59375 C 4.628906 -1.15625 3.609375 -1.957031 2.859375 -3 C 2.109375 -4.039062 1.722656 -5.269531 1.703125 -6.6875 L 6.6875 -6.6875 C 6.75 -5.726562 7.082031 -4.972656 7.6875 -4.421875 C 8.300781 -3.867188 9.140625 -3.59375 10.203125 -3.59375 C 11.296875 -3.59375 12.148438 -3.851562 12.765625 -4.375 C 13.390625 -4.894531 13.703125 -5.578125 13.703125 -6.421875 C 13.703125 -7.109375 13.488281 -7.671875 13.0625 -8.109375 C 12.644531 -8.554688 12.117188 -8.90625 11.484375 -9.15625 C 10.859375 -9.414062 9.988281 -9.703125 8.875 -10.015625 C 7.363281 -10.453125 6.140625 -10.882812 5.203125 -11.3125 C 4.265625 -11.75 3.457031 -12.40625 2.78125 -13.28125 C 2.101562 -14.15625 1.765625 -15.328125 1.765625 -16.796875 C 1.765625 -18.171875 2.109375 -19.363281 2.796875 -20.375 C 3.484375 -21.394531 4.445312 -22.175781 5.6875 -22.71875 C 6.925781 -23.269531 8.34375 -23.546875 9.9375 -23.546875 C 12.332031 -23.546875 14.273438 -22.960938 15.765625 -21.796875 C 17.265625 -20.628906 18.09375 -19.003906 18.25 -16.921875 L 13.140625 -16.921875 C 13.085938 -17.722656 12.742188 -18.382812 12.109375 -18.90625 C 11.484375 -19.425781 10.648438 -19.6875 9.609375 -19.6875 C 8.703125 -19.6875 7.972656 -19.453125 7.421875 -18.984375 C 6.878906 -18.515625 6.609375 -17.835938 6.609375 -16.953125 C 6.609375 -16.335938 6.8125 -15.820312 7.21875 -15.40625 C 7.632812 -15 8.144531 -14.664062 8.75 -14.40625 C 9.363281 -14.15625 10.226562 -13.863281 11.34375 -13.53125 C 12.84375 -13.09375 14.066406 -12.648438 15.015625 -12.203125 C 15.972656 -11.753906 16.796875 -11.085938 17.484375 -10.203125 C 18.171875 -9.316406 18.515625 -8.15625 18.515625 -6.71875 C 18.515625 -5.476562 18.191406 -4.320312 17.546875 -3.25 C 16.910156 -2.1875 15.972656 -1.335938 14.734375 -0.703125 C 13.492188 -0.078125 12.019531 0.234375 10.3125 0.234375 Z M 10.3125 0.234375 "/></g></g></g><g fill="#ffffff" fill-opacity="1"><g transform="translate(254.470421, 340.720392)"><g><path d="M 6.953125 -23.203125 L 6.953125 0 L 2.296875 0 L 2.296875 -23.203125 Z M 6.953125 -23.203125 "/></g></g></g><g fill="#ffffff" fill-opacity="1"><g transform="translate(275.34575, 340.720392)"><g><path d="M 18.453125 -16.21875 C 17.921875 -17.195312 17.1875 -17.941406 16.25 -18.453125 C 15.320312 -18.960938 14.238281 -19.21875 13 -19.21875 C 11.625 -19.21875 10.40625 -18.90625 9.34375 -18.28125 C 8.28125 -17.664062 7.445312 -16.78125 6.84375 -15.625 C 6.25 -14.476562 5.953125 -13.148438 5.953125 -11.640625 C 5.953125 -10.085938 6.253906 -8.734375 6.859375 -7.578125 C 7.472656 -6.429688 8.320312 -5.546875 9.40625 -4.921875 C 10.488281 -4.296875 11.753906 -3.984375 13.203125 -3.984375 C 14.972656 -3.984375 16.421875 -4.453125 17.546875 -5.390625 C 18.679688 -6.335938 19.425781 -7.65625 19.78125 -9.34375 L 11.796875 -9.34375 L 11.796875 -12.90625 L 24.375 -12.90625 L 24.375 -8.84375 C 24.0625 -7.226562 23.394531 -5.734375 22.375 -4.359375 C 21.351562 -2.984375 20.039062 -1.878906 18.4375 -1.046875 C 16.832031 -0.210938 15.03125 0.203125 13.03125 0.203125 C 10.789062 0.203125 8.765625 -0.300781 6.953125 -1.3125 C 5.148438 -2.320312 3.734375 -3.722656 2.703125 -5.515625 C 1.671875 -7.316406 1.15625 -9.359375 1.15625 -11.640625 C 1.15625 -13.921875 1.671875 -15.960938 2.703125 -17.765625 C 3.734375 -19.578125 5.148438 -20.988281 6.953125 -22 C 8.765625 -23.007812 10.78125 -23.515625 13 -23.515625 C 15.613281 -23.515625 17.882812 -22.875 19.8125 -21.59375 C 21.738281 -20.320312 23.070312 -18.53125 23.8125 -16.21875 Z M 18.453125 -16.21875 "/></g></g></g><g fill="#ffffff" fill-opacity="1"><g transform="translate(312.502496, 340.720392)"><g><path d="M 22.140625 0 L 17.484375 0 L 6.953125 -15.921875 L 6.953125 0 L 2.296875 0 L 2.296875 -23.234375 L 6.953125 -23.234375 L 17.484375 -7.28125 L 17.484375 -23.234375 L 22.140625 -23.234375 Z M 22.140625 0 "/></g></g></g><g fill="#ffffff" fill-opacity="1"><g transform="translate(186.862653, 225.24878)"><g><path d="M 40.625 0 C 33.03125 0 26.082031 -1.894531 19.78125 -5.6875 C 13.488281 -9.488281 8.488281 -14.535156 4.78125 -20.828125 C 1.070312 -27.117188 -0.78125 -33.972656 -0.78125 -41.390625 C -0.78125 -47.609375 0.554688 -53.347656 3.234375 -58.609375 C 5.910156 -63.867188 9.144531 -68.65625 12.9375 -72.96875 L 54.328125 -114.109375 C 55.023438 -114.796875 55.113281 -115.484375 54.59375 -116.171875 C 54.070312 -116.859375 53.378906 -117.03125 52.515625 -116.6875 L 31.3125 -101.6875 C 23.195312 -103.582031 16.550781 -106.898438 11.375 -111.640625 C 6.207031 -116.390625 2.5 -121.867188 0.25 -128.078125 C -1.988281 -134.285156 -2.804688 -140.664062 -2.203125 -147.21875 C -1.597656 -153.769531 0.382812 -159.890625 3.75 -165.578125 C 7.113281 -171.273438 11.8125 -175.847656 17.84375 -179.296875 C 23.882812 -182.753906 31.21875 -184.484375 39.84375 -184.484375 L 103.5 -184.484375 C 115.570312 -184.484375 125.789062 -182.328125 134.15625 -178.015625 C 142.519531 -173.703125 149.113281 -168.007812 153.9375 -160.9375 C 158.769531 -153.863281 161.789062 -146.097656 163 -137.640625 C 164.207031 -129.191406 163.734375 -120.785156 161.578125 -112.421875 C 159.421875 -104.054688 155.492188 -96.335938 149.796875 -89.265625 C 144.109375 -82.191406 136.820312 -76.5 127.9375 -72.1875 C 119.0625 -67.875 108.5 -65.71875 96.25 -65.71875 L 94.953125 -65.71875 C 103.234375 -63.476562 112.03125 -63.132812 121.34375 -64.6875 C 130.65625 -66.238281 138.9375 -69.425781 146.1875 -74.25 C 152.21875 -69.9375 156.441406 -65.191406 158.859375 -60.015625 C 161.273438 -54.847656 162.484375 -48.640625 162.484375 -41.390625 C 162.484375 -35.359375 160.628906 -29.109375 156.921875 -22.640625 C 153.210938 -16.171875 148.253906 -10.78125 142.046875 -6.46875 C 135.835938 -2.15625 128.9375 0 121.34375 0 Z M 40.625 0 "/></g></g></g><g fill="#ffffff" fill-opacity="1"><g transform="translate(23.480928, 225.039023)"><g><path d="M 0 -142.5625 C 0 -150.332031 1.769531 -157.367188 5.3125 -163.671875 C 8.851562 -169.984375 13.773438 -175 20.078125 -178.71875 C 26.390625 -182.4375 33.609375 -184.296875 41.734375 -184.296875 L 109.390625 -184.296875 C 117.503906 -184.296875 124.628906 -182.265625 130.765625 -178.203125 C 136.898438 -174.140625 141.609375 -168.867188 144.890625 -162.390625 C 148.171875 -155.910156 149.769531 -149 149.6875 -141.65625 C 149.601562 -134.3125 147.488281 -127.351562 143.34375 -120.78125 C 139.195312 -114.050781 134.097656 -109.34375 128.046875 -106.65625 C 121.992188 -103.976562 115.082031 -102.46875 107.3125 -102.125 C 106.445312 -102.125 106.015625 -101.648438 106.015625 -100.703125 C 106.015625 -99.753906 106.445312 -99.101562 107.3125 -98.75 C 114.394531 -97.882812 121.304688 -98.359375 128.046875 -100.171875 C 134.785156 -101.992188 140.75 -105.582031 145.9375 -110.9375 C 149.382812 -103.332031 150.503906 -95.082031 149.296875 -86.1875 C 148.085938 -77.289062 144.632812 -69.988281 138.9375 -64.28125 C 135.132812 -59.957031 130.726562 -56.890625 125.71875 -55.078125 C 120.707031 -53.265625 115.4375 -52.015625 109.90625 -51.328125 C 109.039062 -51.328125 108.609375 -50.804688 108.609375 -49.765625 C 108.609375 -48.734375 109.039062 -48.21875 109.90625 -48.21875 C 116.644531 -47.519531 123.207031 -48.035156 129.59375 -49.765625 C 135.988281 -51.492188 141.609375 -55.207031 146.453125 -60.90625 C 147.828125 -58.664062 148.816406 -56.160156 149.421875 -53.390625 C 150.035156 -50.628906 150.34375 -46.484375 150.34375 -40.953125 C 150.34375 -36.984375 149.5625 -32.617188 148 -27.859375 C 146.445312 -23.109375 143.984375 -18.613281 140.609375 -14.375 C 137.242188 -10.144531 133.007812 -6.691406 127.90625 -4.015625 C 122.8125 -1.335938 116.640625 0 109.390625 0 L 41.21875 0 C 33.613281 0 26.65625 -1.851562 20.34375 -5.5625 C 14.039062 -9.28125 9.070312 -14.25 5.4375 -20.46875 C 1.8125 -26.695312 0 -33.523438 0 -40.953125 Z M 0 -142.5625 "/></g></g></g><g clip-path="url(#7847549dc1)"><g clip-path="url(#07b01cbb5b)"><path fill="#ffffff" d="M 16.941406 242.21875 L 356.6875 242.21875 L 356.6875 344.785156 L 16.941406 344.785156 Z M 16.941406 242.21875 " fill-opacity="1" fill-rule="nonzero"/></g></g><g fill="#1c1c1c" fill-opacity="1"><g transform="translate(45.247306, 311.406043)"><g><path d="M 34.296875 -13.890625 L 37.03125 -26.96875 C 37.59375 -29.644531 38.398438 -31.816406 39.453125 -33.484375 C 40.503906 -35.160156 41.738281 -36.378906 43.15625 -37.140625 C 44.582031 -37.910156 46.148438 -38.296875 47.859375 -38.296875 L 39 -0.9375 C 38.832031 -0.3125 38.429688 0 37.796875 0 L 32.171875 0 C 31.523438 0 31.125 -0.3125 30.96875 -0.9375 L 24.09375 -23.6875 L 17.125 -0.9375 C 16.957031 -0.3125 16.554688 0 15.921875 0 L 10.28125 0 C 9.644531 0 9.242188 -0.3125 9.078125 -0.9375 L 0.71875 -36 C 0.644531 -36.363281 0.691406 -36.65625 0.859375 -36.875 C 1.035156 -37.09375 1.316406 -37.203125 1.703125 -37.203125 L 7.9375 -37.203125 C 8.625 -37.203125 9.023438 -36.875 9.140625 -36.21875 L 13.78125 -13.953125 L 17.890625 -27.578125 C 18.492188 -29.554688 19.117188 -31.179688 19.765625 -32.453125 C 20.410156 -33.734375 21.097656 -34.753906 21.828125 -35.515625 C 22.554688 -36.285156 23.328125 -36.878906 24.140625 -37.296875 C 24.953125 -37.722656 25.820312 -38.054688 26.75 -38.296875 Z M 34.296875 -13.890625 "/></g></g></g><g fill="#1c1c1c" fill-opacity="1"><g transform="translate(93.436247, 311.406043)"><g><path d="M 15.53125 -25 C 17.375 -25 19.097656 -24.722656 20.703125 -24.171875 C 22.304688 -23.628906 23.722656 -22.832031 24.953125 -21.78125 C 26.179688 -20.738281 27.144531 -19.445312 27.84375 -17.90625 C 28.539062 -16.363281 28.890625 -14.585938 28.890625 -12.578125 L 28.890625 -11.59375 C 28.890625 -10.863281 28.523438 -10.5 27.796875 -10.5 L 10.171875 -10.5 C 10.285156 -8.84375 10.796875 -7.507812 11.703125 -6.5 C 12.617188 -5.488281 13.84375 -4.984375 15.375 -4.984375 C 16.570312 -4.984375 17.5625 -5.226562 18.34375 -5.71875 C 19.132812 -6.207031 19.691406 -6.816406 20.015625 -7.546875 C 20.160156 -7.859375 20.320312 -8.09375 20.5 -8.25 C 20.6875 -8.40625 20.925781 -8.484375 21.21875 -8.484375 L 27.296875 -8.484375 C 27.679688 -8.484375 27.96875 -8.367188 28.15625 -8.140625 C 28.351562 -7.910156 28.378906 -7.601562 28.234375 -7.21875 C 27.585938 -5.394531 26.648438 -3.882812 25.421875 -2.6875 C 24.191406 -1.5 22.738281 -0.609375 21.0625 -0.015625 C 19.382812 0.578125 17.539062 0.875 15.53125 0.875 C 13.457031 0.875 11.554688 0.578125 9.828125 -0.015625 C 8.109375 -0.609375 6.628906 -1.460938 5.390625 -2.578125 C 4.148438 -3.703125 3.1875 -5.0625 2.5 -6.65625 C 1.820312 -8.25 1.484375 -10.039062 1.484375 -12.03125 C 1.484375 -14 1.832031 -15.78125 2.53125 -17.375 C 3.226562 -18.976562 4.207031 -20.34375 5.46875 -21.46875 C 6.726562 -22.601562 8.210938 -23.472656 9.921875 -24.078125 C 11.640625 -24.691406 13.507812 -25 15.53125 -25 Z M 10.28125 -14.9375 L 20.1875 -14.9375 C 20.113281 -16.25 19.640625 -17.320312 18.765625 -18.15625 C 17.890625 -19 16.722656 -19.421875 15.265625 -19.421875 C 13.742188 -19.421875 12.59375 -19 11.8125 -18.15625 C 11.03125 -17.320312 10.519531 -16.25 10.28125 -14.9375 Z M 10.28125 -14.9375 "/></g></g></g><g fill="#1c1c1c" fill-opacity="1"><g transform="translate(123.903031, 311.406043)"><g><path d="M 19.09375 -25 C 20.875 -25 22.5 -24.679688 23.96875 -24.046875 C 25.4375 -23.421875 26.703125 -22.535156 27.765625 -21.390625 C 28.835938 -20.242188 29.664062 -18.878906 30.25 -17.296875 C 30.832031 -15.722656 31.125 -13.988281 31.125 -12.09375 C 31.125 -10.175781 30.832031 -8.421875 30.25 -6.828125 C 29.664062 -5.242188 28.835938 -3.878906 27.765625 -2.734375 C 26.703125 -1.585938 25.4375 -0.695312 23.96875 -0.0625 C 22.5 0.5625 20.875 0.875 19.09375 0.875 C 17.101562 0.875 15.300781 0.476562 13.6875 -0.3125 C 12.070312 -1.101562 10.726562 -2.210938 9.65625 -3.640625 C 8.320312 -0.847656 5.976562 0.546875 2.625 0.546875 L 2.625 -41.03125 C 5.289062 -40.476562 7.320312 -39.3125 8.71875 -37.53125 C 10.125 -35.757812 10.828125 -33.460938 10.828125 -30.640625 L 10.828125 -21.828125 C 11.867188 -22.847656 13.09375 -23.628906 14.5 -24.171875 C 15.90625 -24.722656 17.4375 -25 19.09375 -25 Z M 16.578125 -5.6875 C 17.691406 -5.6875 18.679688 -5.953125 19.546875 -6.484375 C 20.410156 -7.023438 21.085938 -7.773438 21.578125 -8.734375 C 22.066406 -9.691406 22.3125 -10.789062 22.3125 -12.03125 C 22.3125 -13.269531 22.066406 -14.367188 21.578125 -15.328125 C 21.085938 -16.285156 20.410156 -17.03125 19.546875 -17.5625 C 18.679688 -18.101562 17.691406 -18.375 16.578125 -18.375 C 15.460938 -18.375 14.472656 -18.101562 13.609375 -17.5625 C 12.742188 -17.03125 12.0625 -16.285156 11.5625 -15.328125 C 11.070312 -14.367188 10.828125 -13.269531 10.828125 -12.03125 C 10.828125 -10.789062 11.070312 -9.691406 11.5625 -8.734375 C 12.0625 -7.773438 12.742188 -7.023438 13.609375 -6.484375 C 14.472656 -5.953125 15.460938 -5.6875 16.578125 -5.6875 Z M 16.578125 -5.6875 "/></g></g></g><g fill="#1c1c1c" fill-opacity="1"><g transform="translate(156.612437, 311.406043)"><g/></g></g><g fill="#1c1c1c" fill-opacity="1"><g transform="translate(170.833922, 311.406043)"><g><path d="M 12.90625 0 L 4.046875 0 C 3.316406 0 2.953125 -0.363281 2.953125 -1.09375 L 2.953125 -36.109375 C 2.953125 -36.835938 3.316406 -37.203125 4.046875 -37.203125 L 12.90625 -37.203125 C 16.351562 -37.203125 19.335938 -36.726562 21.859375 -35.78125 C 24.390625 -34.84375 26.484375 -33.523438 28.140625 -31.828125 C 29.804688 -30.140625 31.039062 -28.164062 31.84375 -25.90625 C 32.644531 -23.65625 33.046875 -21.21875 33.046875 -18.59375 C 33.046875 -15.96875 32.644531 -13.53125 31.84375 -11.28125 C 31.039062 -9.03125 29.8125 -7.054688 28.15625 -5.359375 C 26.507812 -3.660156 24.421875 -2.34375 21.890625 -1.40625 C 19.367188 -0.46875 16.375 0 12.90625 0 Z M 11.15625 -29.765625 L 11.15625 -7.4375 L 13.671875 -7.4375 C 15.660156 -7.4375 17.359375 -7.722656 18.765625 -8.296875 C 20.179688 -8.867188 21.335938 -9.664062 22.234375 -10.6875 C 23.128906 -11.707031 23.785156 -12.894531 24.203125 -14.25 C 24.617188 -15.601562 24.828125 -17.050781 24.828125 -18.59375 C 24.828125 -20.144531 24.617188 -21.59375 24.203125 -22.9375 C 23.785156 -24.289062 23.132812 -25.476562 22.25 -26.5 C 21.363281 -27.519531 20.210938 -28.316406 18.796875 -28.890625 C 17.390625 -29.472656 15.679688 -29.765625 13.671875 -29.765625 Z M 11.15625 -29.765625 "/></g></g></g><g fill="#1c1c1c" fill-opacity="1"><g transform="translate(205.348355, 311.406043)"><g><path d="M 15.53125 -25 C 17.375 -25 19.097656 -24.722656 20.703125 -24.171875 C 22.304688 -23.628906 23.722656 -22.832031 24.953125 -21.78125 C 26.179688 -20.738281 27.144531 -19.445312 27.84375 -17.90625 C 28.539062 -16.363281 28.890625 -14.585938 28.890625 -12.578125 L 28.890625 -11.59375 C 28.890625 -10.863281 28.523438 -10.5 27.796875 -10.5 L 10.171875 -10.5 C 10.285156 -8.84375 10.796875 -7.507812 11.703125 -6.5 C 12.617188 -5.488281 13.84375 -4.984375 15.375 -4.984375 C 16.570312 -4.984375 17.5625 -5.226562 18.34375 -5.71875 C 19.132812 -6.207031 19.691406 -6.816406 20.015625 -7.546875 C 20.160156 -7.859375 20.320312 -8.09375 20.5 -8.25 C 20.6875 -8.40625 20.925781 -8.484375 21.21875 -8.484375 L 27.296875 -8.484375 C 27.679688 -8.484375 27.96875 -8.367188 28.15625 -8.140625 C 28.351562 -7.910156 28.378906 -7.601562 28.234375 -7.21875 C 27.585938 -5.394531 26.648438 -3.882812 25.421875 -2.6875 C 24.191406 -1.5 22.738281 -0.609375 21.0625 -0.015625 C 19.382812 0.578125 17.539062 0.875 15.53125 0.875 C 13.457031 0.875 11.554688 0.578125 9.828125 -0.015625 C 8.109375 -0.609375 6.628906 -1.460938 5.390625 -2.578125 C 4.148438 -3.703125 3.1875 -5.0625 2.5 -6.65625 C 1.820312 -8.25 1.484375 -10.039062 1.484375 -12.03125 C 1.484375 -14 1.832031 -15.78125 2.53125 -17.375 C 3.226562 -18.976562 4.207031 -20.34375 5.46875 -21.46875 C 6.726562 -22.601562 8.210938 -23.472656 9.921875 -24.078125 C 11.640625 -24.691406 13.507812 -25 15.53125 -25 Z M 10.28125 -14.9375 L 20.1875 -14.9375 C 20.113281 -16.25 19.640625 -17.320312 18.765625 -18.15625 C 17.890625 -19 16.722656 -19.421875 15.265625 -19.421875 C 13.742188 -19.421875 12.59375 -19 11.8125 -18.15625 C 11.03125 -17.320312 10.519531 -16.25 10.28125 -14.9375 Z M 10.28125 -14.9375 "/></g></g></g><g fill="#1c1c1c" fill-opacity="1"><g transform="translate(235.815139, 311.406043)"><g><path d="M 14.546875 0.875 C 12.234375 0.875 10.148438 0.570312 8.296875 -0.03125 C 6.453125 -0.644531 4.929688 -1.585938 3.734375 -2.859375 C 2.535156 -4.140625 1.765625 -5.796875 1.421875 -7.828125 C 1.367188 -8.191406 1.441406 -8.472656 1.640625 -8.671875 C 1.835938 -8.867188 2.113281 -8.96875 2.46875 -8.96875 L 8.421875 -8.96875 C 8.753906 -8.96875 9.007812 -8.875 9.1875 -8.6875 C 9.375 -8.507812 9.503906 -8.257812 9.578125 -7.9375 C 9.734375 -7.289062 10.015625 -6.765625 10.421875 -6.359375 C 10.835938 -5.953125 11.304688 -5.632812 11.828125 -5.40625 C 12.347656 -5.175781 12.867188 -5.019531 13.390625 -4.9375 C 13.910156 -4.851562 14.351562 -4.8125 14.71875 -4.8125 C 16.007812 -4.8125 16.957031 -5.035156 17.5625 -5.484375 C 18.175781 -5.929688 18.484375 -6.492188 18.484375 -7.171875 C 18.484375 -7.734375 18.253906 -8.175781 17.796875 -8.5 C 17.347656 -8.832031 16.738281 -9.085938 15.96875 -9.265625 C 15.207031 -9.453125 14.347656 -9.613281 13.390625 -9.75 C 12.429688 -9.882812 11.441406 -10.039062 10.421875 -10.21875 C 9.398438 -10.40625 8.410156 -10.648438 7.453125 -10.953125 C 6.492188 -11.253906 5.628906 -11.660156 4.859375 -12.171875 C 4.097656 -12.679688 3.488281 -13.347656 3.03125 -14.171875 C 2.582031 -14.992188 2.359375 -16.015625 2.359375 -17.234375 C 2.359375 -18.785156 2.796875 -20.144531 3.671875 -21.3125 C 4.546875 -22.476562 5.828125 -23.382812 7.515625 -24.03125 C 9.210938 -24.675781 11.300781 -25 13.78125 -25 C 16.988281 -25 19.609375 -24.421875 21.640625 -23.265625 C 23.679688 -22.109375 25 -20.351562 25.59375 -18 C 25.6875 -17.613281 25.640625 -17.316406 25.453125 -17.109375 C 25.273438 -16.898438 24.992188 -16.796875 24.609375 -16.796875 L 18.765625 -16.796875 C 18.203125 -16.796875 17.78125 -17.101562 17.5 -17.71875 C 17.175781 -18.4375 16.695312 -18.976562 16.0625 -19.34375 C 15.4375 -19.71875 14.53125 -19.90625 13.34375 -19.90625 C 12.394531 -19.90625 11.703125 -19.742188 11.265625 -19.421875 C 10.828125 -19.109375 10.609375 -18.742188 10.609375 -18.328125 C 10.609375 -17.796875 10.835938 -17.375 11.296875 -17.0625 C 11.753906 -16.757812 12.363281 -16.507812 13.125 -16.3125 C 13.894531 -16.125 14.757812 -15.957031 15.71875 -15.8125 C 16.675781 -15.664062 17.664062 -15.488281 18.6875 -15.28125 C 19.707031 -15.082031 20.691406 -14.816406 21.640625 -14.484375 C 22.597656 -14.160156 23.457031 -13.71875 24.21875 -13.15625 C 24.988281 -12.601562 25.601562 -11.90625 26.0625 -11.0625 C 26.519531 -10.21875 26.75 -9.175781 26.75 -7.9375 C 26.75 -6.070312 26.265625 -4.484375 25.296875 -3.171875 C 24.328125 -1.859375 22.9375 -0.851562 21.125 -0.15625 C 19.3125 0.53125 17.117188 0.875 14.546875 0.875 Z M 14.546875 0.875 "/></g></g></g><g fill="#1c1c1c" fill-opacity="1"><g transform="translate(264.094002, 311.406043)"><g><path d="M 6.34375 -28.890625 C 5.34375 -28.890625 4.378906 -29.050781 3.453125 -29.375 C 2.535156 -29.707031 1.785156 -30.203125 1.203125 -30.859375 C 0.617188 -31.515625 0.328125 -32.332031 0.328125 -33.3125 C 0.328125 -34.28125 0.617188 -35.09375 1.203125 -35.75 C 1.785156 -36.40625 2.535156 -36.898438 3.453125 -37.234375 C 4.378906 -37.578125 5.34375 -37.75 6.34375 -37.75 C 7.332031 -37.75 8.285156 -37.578125 9.203125 -37.234375 C 10.117188 -36.898438 10.875 -36.40625 11.46875 -35.75 C 12.0625 -35.09375 12.359375 -34.28125 12.359375 -33.3125 C 12.359375 -32.332031 12.0625 -31.515625 11.46875 -30.859375 C 10.875 -30.203125 10.117188 -29.707031 9.203125 -29.375 C 8.285156 -29.050781 7.332031 -28.890625 6.34375 -28.890625 Z M 9.734375 0 L 3.71875 0 C 2.988281 0 2.625 -0.363281 2.625 -1.09375 L 2.625 -24.671875 C 5.289062 -24.117188 7.320312 -22.953125 8.71875 -21.171875 C 10.125 -19.398438 10.828125 -17.101562 10.828125 -14.28125 L 10.828125 -1.09375 C 10.828125 -0.363281 10.460938 0 9.734375 0 Z M 9.734375 0 "/></g></g></g><g fill="#1c1c1c" fill-opacity="1"><g transform="translate(277.221522, 311.406043)"><g><path d="M 23.0625 -20.484375 C 24.382812 -23.273438 26.726562 -24.671875 30.09375 -24.671875 L 30.09375 2.140625 C 30.09375 4.773438 29.5 6.945312 28.3125 8.65625 C 27.125 10.363281 25.476562 11.625 23.375 12.4375 C 21.28125 13.257812 18.867188 13.671875 16.140625 13.671875 C 14.460938 13.671875 12.832031 13.5 11.25 13.15625 C 9.675781 12.820312 8.242188 12.289062 6.953125 11.5625 C 5.671875 10.832031 4.601562 9.863281 3.75 8.65625 C 2.90625 7.445312 2.367188 5.96875 2.140625 4.21875 C 2.078125 3.851562 2.144531 3.566406 2.34375 3.359375 C 2.550781 3.160156 2.828125 3.0625 3.171875 3.0625 L 9.1875 3.0625 C 9.820312 3.0625 10.222656 3.410156 10.390625 4.109375 C 10.660156 5.273438 11.289062 6.148438 12.28125 6.734375 C 13.28125 7.316406 14.601562 7.609375 16.25 7.609375 C 18.050781 7.609375 19.4375 7.171875 20.40625 6.296875 C 21.382812 5.421875 21.875 4.015625 21.875 2.078125 L 21.875 -2.296875 C 20.84375 -1.296875 19.628906 -0.519531 18.234375 0.03125 C 16.835938 0.59375 15.300781 0.875 13.625 0.875 C 11.851562 0.875 10.226562 0.5625 8.75 -0.0625 C 7.269531 -0.695312 6 -1.585938 4.9375 -2.734375 C 3.875 -3.878906 3.050781 -5.242188 2.46875 -6.828125 C 1.882812 -8.421875 1.59375 -10.175781 1.59375 -12.09375 C 1.59375 -13.988281 1.882812 -15.722656 2.46875 -17.296875 C 3.050781 -18.878906 3.875 -20.242188 4.9375 -21.390625 C 6 -22.535156 7.269531 -23.421875 8.75 -24.046875 C 10.226562 -24.679688 11.851562 -25 13.625 -25 C 15.625 -25 17.429688 -24.601562 19.046875 -23.8125 C 20.660156 -23.019531 22 -21.910156 23.0625 -20.484375 Z M 16.140625 -5.6875 C 17.253906 -5.6875 18.242188 -5.953125 19.109375 -6.484375 C 19.972656 -7.023438 20.648438 -7.773438 21.140625 -8.734375 C 21.628906 -9.691406 21.875 -10.789062 21.875 -12.03125 C 21.875 -13.269531 21.628906 -14.367188 21.140625 -15.328125 C 20.648438 -16.285156 19.972656 -17.03125 19.109375 -17.5625 C 18.242188 -18.101562 17.253906 -18.375 16.140625 -18.375 C 15.023438 -18.375 14.035156 -18.101562 13.171875 -17.5625 C 12.304688 -17.03125 11.625 -16.285156 11.125 -15.328125 C 10.632812 -14.367188 10.390625 -13.269531 10.390625 -12.03125 C 10.390625 -10.789062 10.632812 -9.691406 11.125 -8.734375 C 11.625 -7.773438 12.304688 -7.023438 13.171875 -6.484375 C 14.035156 -5.953125 15.023438 -5.6875 16.140625 -5.6875 Z M 16.140625 -5.6875 "/></g></g></g><g fill="#1c1c1c" fill-opacity="1"><g transform="translate(309.985607, 311.406043)"><g><path d="M 18.15625 -25 C 20.3125 -25 22.050781 -24.535156 23.375 -23.609375 C 24.707031 -22.691406 25.6875 -21.40625 26.3125 -19.75 C 26.9375 -18.101562 27.25 -16.1875 27.25 -14 L 27.25 -1.09375 C 27.25 -0.363281 26.878906 0 26.140625 0 L 20.125 0 C 19.394531 0 19.03125 -0.363281 19.03125 -1.09375 L 19.03125 -14 C 19.03125 -15.425781 18.742188 -16.519531 18.171875 -17.28125 C 17.597656 -18.050781 16.664062 -18.4375 15.375 -18.4375 C 14.207031 -18.4375 13.195312 -18.003906 12.34375 -17.140625 C 11.5 -16.285156 10.992188 -15.101562 10.828125 -13.59375 L 10.828125 -1.09375 C 10.828125 -0.363281 10.460938 0 9.734375 0 L 3.71875 0 C 2.988281 0 2.625 -0.363281 2.625 -1.09375 L 2.625 -24.671875 C 4.25 -24.335938 5.640625 -23.769531 6.796875 -22.96875 C 7.953125 -22.164062 8.867188 -21.15625 9.546875 -19.9375 C 10.785156 -21.78125 12.132812 -23.082031 13.59375 -23.84375 C 15.050781 -24.613281 16.570312 -25 18.15625 -25 Z M 18.15625 -25 "/></g></g></g></svg>