<svg xmlns="http://www.w3.org/2000/svg" xmlns:xlink="http://www.w3.org/1999/xlink" width="400" zoomAndPan="magnify" viewBox="0 0 300 52.499999" height="70" preserveAspectRatio="xMidYMid meet" version="1.0"><defs><g/></defs><g fill="#404040" fill-opacity="1"><g transform="translate(10.926651, 36.319326)"><g><path d="M 20.65625 -32.03125 L 20.65625 -25.625 L 9.625 -25.625 L 9.625 -19.265625 L 20.1875 -19.265625 L 20.1875 -12.859375 L 9.625 -12.859375 L 9.625 -6.40625 L 20.65625 -6.40625 L 20.65625 0 L 2.328125 0 L 2.328125 -32.03125 Z M 20.65625 -32.03125 "/></g></g></g><g fill="#404040" fill-opacity="1"><g transform="translate(31.499643, 36.319326)"><g><path d="M 14.09375 -26.4375 C 13.0625 -26.4375 12.070312 -25.925781 11.125 -24.90625 C 10.175781 -23.882812 9.484375 -22.867188 9.046875 -21.859375 L 8.390625 -20.34375 L 2.296875 -23.296875 C 2.367188 -23.554688 2.492188 -23.890625 2.671875 -24.296875 C 2.859375 -24.710938 3.285156 -25.457031 3.953125 -26.53125 C 4.628906 -27.613281 5.375 -28.5625 6.1875 -29.375 C 7.007812 -30.1875 8.125 -30.925781 9.53125 -31.59375 C 10.945312 -32.269531 12.46875 -32.609375 14.09375 -32.609375 C 16.1875 -32.609375 18.015625 -32.34375 19.578125 -31.8125 C 21.148438 -31.289062 22.363281 -30.632812 23.21875 -29.84375 C 24.070312 -29.050781 24.765625 -28.117188 25.296875 -27.046875 C 25.828125 -25.972656 26.160156 -24.992188 26.296875 -24.109375 C 26.441406 -23.234375 26.515625 -22.316406 26.515625 -21.359375 C 26.515625 -19.960938 26.125 -18.492188 25.34375 -16.953125 C 24.570312 -15.410156 23.632812 -14.035156 22.53125 -12.828125 C 21.4375 -11.628906 20.332031 -10.53125 19.21875 -9.53125 C 18.101562 -8.53125 17.160156 -7.757812 16.390625 -7.21875 L 15.21875 -6.40625 L 27.109375 -6.40625 L 27.109375 0 L 2.140625 0 L 2.140625 -1.828125 C 2.578125 -2.191406 3.171875 -2.6875 3.921875 -3.3125 C 4.671875 -3.945312 5.988281 -5.15625 7.875 -6.9375 C 9.769531 -8.726562 11.441406 -10.40625 12.890625 -11.96875 C 14.335938 -13.539062 15.65625 -15.21875 16.84375 -17 C 18.039062 -18.789062 18.640625 -20.242188 18.640625 -21.359375 C 18.640625 -21.796875 18.59375 -22.234375 18.5 -22.671875 C 18.40625 -23.109375 18.226562 -23.644531 17.96875 -24.28125 C 17.71875 -24.914062 17.253906 -25.429688 16.578125 -25.828125 C 15.898438 -26.234375 15.070312 -26.4375 14.09375 -26.4375 Z M 14.09375 -26.4375 "/></g></g></g><g fill="#404040" fill-opacity="1"><g transform="translate(58.7881, 36.319326)"><g/></g></g><g fill="#404040" fill-opacity="1"><g transform="translate(67.444045, 36.319326)"><g><path d="M 26.90625 0 L 21.78125 -17.984375 L 16.65625 0 L 8.546875 0 L -0.578125 -32.03125 L 7.53125 -32.03125 L 13 -10.0625 L 13.203125 -10.0625 L 19.03125 -32.03125 L 24.546875 -32.03125 L 30.359375 -10.0625 L 30.5625 -10.0625 L 36.03125 -32.03125 L 44.109375 -32.03125 L 34.984375 0 Z M 26.90625 0 "/></g></g></g><g fill="#404040" fill-opacity="1"><g transform="translate(109.017429, 36.319326)"><g><path d="M 22.484375 -9.015625 L 8.03125 -9.015625 C 8.03125 -7.609375 8.484375 -6.566406 9.390625 -5.890625 C 10.296875 -5.222656 11.28125 -4.890625 12.34375 -4.890625 C 13.457031 -4.890625 14.335938 -5.035156 14.984375 -5.328125 C 15.628906 -5.628906 16.367188 -6.222656 17.203125 -7.109375 L 22.171875 -4.625 C 20.097656 -1.15625 16.65625 0.578125 11.84375 0.578125 C 8.84375 0.578125 6.265625 -0.445312 4.109375 -2.5 C 1.960938 -4.5625 0.890625 -7.039062 0.890625 -9.9375 C 0.890625 -12.832031 1.960938 -15.316406 4.109375 -17.390625 C 6.265625 -19.460938 8.84375 -20.5 11.84375 -20.5 C 15 -20.5 17.566406 -19.585938 19.546875 -17.765625 C 21.523438 -15.941406 22.515625 -13.332031 22.515625 -9.9375 C 22.515625 -9.46875 22.503906 -9.160156 22.484375 -9.015625 Z M 8.234375 -12.8125 L 15.796875 -12.8125 C 15.640625 -13.84375 15.234375 -14.632812 14.578125 -15.1875 C 13.921875 -15.75 13.070312 -16.03125 12.03125 -16.03125 C 10.894531 -16.03125 9.988281 -15.734375 9.3125 -15.140625 C 8.644531 -14.546875 8.285156 -13.769531 8.234375 -12.8125 Z M 8.234375 -12.8125 "/></g></g></g><g fill="#404040" fill-opacity="1"><g transform="translate(130.483237, 36.319326)"><g><path d="M 22.828125 -17.421875 C 24.691406 -15.378906 25.625 -12.882812 25.625 -9.9375 C 25.625 -6.988281 24.691406 -4.5 22.828125 -2.46875 C 20.960938 -0.4375 18.59375 0.578125 15.71875 0.578125 C 13.082031 0.578125 10.910156 -0.363281 9.203125 -2.25 L 9.125 -2.25 L 9.125 0 L 2.328125 0 L 2.328125 -33.390625 L 9.203125 -33.390625 L 9.203125 -18.015625 C 10.910156 -19.671875 13.082031 -20.5 15.71875 -20.5 C 18.59375 -20.5 20.960938 -19.472656 22.828125 -17.421875 Z M 17.046875 -6.578125 C 17.898438 -7.441406 18.328125 -8.5625 18.328125 -9.9375 C 18.328125 -11.3125 17.878906 -12.4375 16.984375 -13.3125 C 16.085938 -14.195312 14.984375 -14.640625 13.671875 -14.640625 C 12.367188 -14.640625 11.269531 -14.195312 10.375 -13.3125 C 9.488281 -12.4375 9.046875 -11.3125 9.046875 -9.9375 C 9.046875 -8.59375 9.476562 -7.476562 10.34375 -6.59375 C 11.21875 -5.71875 12.328125 -5.28125 13.671875 -5.28125 C 15.066406 -5.28125 16.191406 -5.710938 17.046875 -6.578125 Z M 17.046875 -6.578125 "/></g></g></g><g fill="#404040" fill-opacity="1"><g transform="translate(155.054453, 36.319326)"><g/></g></g><g fill="#404040" fill-opacity="1"><g transform="translate(163.710403, 36.319326)"><g><path d="M 2.328125 -32.03125 L 11.609375 -32.03125 C 16.054688 -32.03125 19.859375 -30.507812 23.015625 -27.46875 C 26.179688 -24.425781 27.765625 -20.613281 27.765625 -16.03125 C 27.765625 -11.425781 26.191406 -7.601562 23.046875 -4.5625 C 19.898438 -1.519531 16.085938 0 11.609375 0 L 2.328125 0 Z M 9.625 -6.515625 L 10.75 -6.515625 C 13.414062 -6.515625 15.597656 -7.414062 17.296875 -9.21875 C 18.992188 -11.019531 19.851562 -13.28125 19.875 -16 C 19.875 -18.71875 19.023438 -20.984375 17.328125 -22.796875 C 15.640625 -24.609375 13.445312 -25.515625 10.75 -25.515625 L 9.625 -25.515625 Z M 9.625 -6.515625 "/></g></g></g><g fill="#404040" fill-opacity="1"><g transform="translate(190.416597, 36.319326)"><g><path d="M 22.484375 -9.015625 L 8.03125 -9.015625 C 8.03125 -7.609375 8.484375 -6.566406 9.390625 -5.890625 C 10.296875 -5.222656 11.28125 -4.890625 12.34375 -4.890625 C 13.457031 -4.890625 14.335938 -5.035156 14.984375 -5.328125 C 15.628906 -5.628906 16.367188 -6.222656 17.203125 -7.109375 L 22.171875 -4.625 C 20.097656 -1.15625 16.65625 0.578125 11.84375 0.578125 C 8.84375 0.578125 6.265625 -0.445312 4.109375 -2.5 C 1.960938 -4.5625 0.890625 -7.039062 0.890625 -9.9375 C 0.890625 -12.832031 1.960938 -15.316406 4.109375 -17.390625 C 6.265625 -19.460938 8.84375 -20.5 11.84375 -20.5 C 15 -20.5 17.566406 -19.585938 19.546875 -17.765625 C 21.523438 -15.941406 22.515625 -13.332031 22.515625 -9.9375 C 22.515625 -9.46875 22.503906 -9.160156 22.484375 -9.015625 Z M 8.234375 -12.8125 L 15.796875 -12.8125 C 15.640625 -13.84375 15.234375 -14.632812 14.578125 -15.1875 C 13.921875 -15.75 13.070312 -16.03125 12.03125 -16.03125 C 10.894531 -16.03125 9.988281 -15.734375 9.3125 -15.140625 C 8.644531 -14.546875 8.285156 -13.769531 8.234375 -12.8125 Z M 8.234375 -12.8125 "/></g></g></g><g fill="#404040" fill-opacity="1"><g transform="translate(211.882394, 36.319326)"><g><path d="M 10.984375 -20.5 C 12.128906 -20.5 13.253906 -20.367188 14.359375 -20.109375 C 15.472656 -19.847656 16.300781 -19.59375 16.84375 -19.34375 L 17.671875 -18.953125 L 15.421875 -14.4375 C 13.859375 -15.269531 12.378906 -15.6875 10.984375 -15.6875 C 10.210938 -15.6875 9.664062 -15.601562 9.34375 -15.4375 C 9.019531 -15.269531 8.859375 -14.953125 8.859375 -14.484375 C 8.859375 -14.378906 8.867188 -14.273438 8.890625 -14.171875 C 8.921875 -14.066406 8.972656 -13.96875 9.046875 -13.875 C 9.117188 -13.789062 9.1875 -13.710938 9.25 -13.640625 C 9.320312 -13.578125 9.4375 -13.503906 9.59375 -13.421875 C 9.75 -13.347656 9.867188 -13.289062 9.953125 -13.25 C 10.046875 -13.21875 10.195312 -13.160156 10.40625 -13.078125 C 10.613281 -13.003906 10.769531 -12.945312 10.875 -12.90625 C 10.976562 -12.875 11.148438 -12.816406 11.390625 -12.734375 C 11.640625 -12.660156 11.828125 -12.609375 11.953125 -12.578125 C 12.753906 -12.347656 13.453125 -12.085938 14.046875 -11.796875 C 14.648438 -11.515625 15.28125 -11.128906 15.9375 -10.640625 C 16.59375 -10.148438 17.101562 -9.53125 17.46875 -8.78125 C 17.832031 -8.03125 18.015625 -7.175781 18.015625 -6.21875 C 18.015625 -1.6875 14.867188 0.578125 8.578125 0.578125 C 7.160156 0.578125 5.804688 0.359375 4.515625 -0.078125 C 3.234375 -0.515625 2.3125 -0.953125 1.75 -1.390625 L 0.890625 -2.09375 L 3.6875 -6.796875 C 3.894531 -6.609375 4.164062 -6.390625 4.5 -6.140625 C 4.84375 -5.898438 5.453125 -5.566406 6.328125 -5.140625 C 7.210938 -4.710938 7.976562 -4.5 8.625 -4.5 C 10.039062 -4.5 10.75 -4.976562 10.75 -5.9375 C 10.75 -6.375 10.566406 -6.71875 10.203125 -6.96875 C 9.847656 -7.21875 9.234375 -7.492188 8.359375 -7.796875 C 7.492188 -8.109375 6.816406 -8.394531 6.328125 -8.65625 C 5.085938 -9.300781 4.101562 -10.03125 3.375 -10.84375 C 2.65625 -11.664062 2.296875 -12.75 2.296875 -14.09375 C 2.296875 -16.113281 3.078125 -17.6875 4.640625 -18.8125 C 6.203125 -19.9375 8.316406 -20.5 10.984375 -20.5 Z M 10.984375 -20.5 "/></g></g></g><g fill="#404040" fill-opacity="1"><g transform="translate(229.03942, 36.319326)"><g><path d="M 2.984375 -31.015625 C 3.785156 -31.828125 4.742188 -32.234375 5.859375 -32.234375 C 6.972656 -32.234375 7.929688 -31.828125 8.734375 -31.015625 C 9.535156 -30.210938 9.9375 -29.253906 9.9375 -28.140625 C 9.9375 -27.035156 9.535156 -26.082031 8.734375 -25.28125 C 7.929688 -24.476562 6.972656 -24.078125 5.859375 -24.078125 C 4.742188 -24.078125 3.785156 -24.476562 2.984375 -25.28125 C 2.179688 -26.082031 1.78125 -27.035156 1.78125 -28.140625 C 1.78125 -29.253906 2.179688 -30.210938 2.984375 -31.015625 Z M 2.328125 -19.921875 L 2.328125 0 L 9.203125 0 L 9.203125 -19.921875 Z M 2.328125 -19.921875 "/></g></g></g><g fill="#404040" fill-opacity="1"><g transform="translate(238.821093, 36.319326)"><g><path d="M 1.4375 4.890625 L 7.0625 2.140625 C 8.101562 3.847656 9.90625 4.703125 12.46875 4.703125 C 13.65625 4.703125 14.757812 4.316406 15.78125 3.546875 C 16.800781 2.785156 17.3125 1.613281 17.3125 0.03125 L 17.3125 -1.4375 C 16.101562 -0.09375 13.929688 0.578125 10.796875 0.578125 C 7.921875 0.578125 5.550781 -0.4375 3.6875 -2.46875 C 1.820312 -4.5 0.890625 -6.988281 0.890625 -9.9375 C 0.890625 -12.882812 1.820312 -15.378906 3.6875 -17.421875 C 5.550781 -19.472656 7.921875 -20.5 10.796875 -20.5 C 13.359375 -20.5 15.492188 -19.707031 17.203125 -18.125 L 17.3125 -18.125 L 17.3125 -19.921875 L 24.1875 -19.921875 L 24.1875 0.546875 C 24.1875 3.773438 23.113281 6.269531 20.96875 8.03125 C 18.820312 9.789062 15.988281 10.671875 12.46875 10.671875 C 6.769531 10.671875 3.09375 8.742188 1.4375 4.890625 Z M 9.53125 -13.3125 C 8.632812 -12.4375 8.1875 -11.3125 8.1875 -9.9375 C 8.1875 -8.5625 8.613281 -7.441406 9.46875 -6.578125 C 10.320312 -5.710938 11.453125 -5.28125 12.859375 -5.28125 C 14.203125 -5.28125 15.304688 -5.71875 16.171875 -6.59375 C 17.035156 -7.476562 17.46875 -8.59375 17.46875 -9.9375 C 17.46875 -11.3125 17.019531 -12.4375 16.125 -13.3125 C 15.238281 -14.195312 14.148438 -14.640625 12.859375 -14.640625 C 11.535156 -14.640625 10.425781 -14.195312 9.53125 -13.3125 Z M 9.53125 -13.3125 "/></g></g></g><g fill="#404040" fill-opacity="1"><g transform="translate(263.392309, 36.319326)"><g><path d="M 2.328125 0 L 2.328125 -19.921875 L 9.203125 -19.921875 L 9.203125 -17.828125 L 9.28125 -17.828125 C 11.0625 -19.609375 12.960938 -20.5 14.984375 -20.5 C 15.972656 -20.5 16.953125 -20.367188 17.921875 -20.109375 C 18.890625 -19.847656 19.816406 -19.445312 20.703125 -18.90625 C 21.597656 -18.363281 22.320312 -17.59375 22.875 -16.59375 C 23.4375 -15.601562 23.71875 -14.445312 23.71875 -13.125 L 23.71875 0 L 16.84375 0 L 16.84375 -11.265625 C 16.84375 -12.296875 16.515625 -13.195312 15.859375 -13.96875 C 15.203125 -14.75 14.34375 -15.140625 13.28125 -15.140625 C 12.238281 -15.140625 11.296875 -14.738281 10.453125 -13.9375 C 9.617188 -13.132812 9.203125 -12.242188 9.203125 -11.265625 L 9.203125 0 Z M 2.328125 0 "/></g></g></g></svg>