<svg xmlns="http://www.w3.org/2000/svg" xmlns:xlink="http://www.w3.org/1999/xlink" width="500" zoomAndPan="magnify" viewBox="0 0 375 374.999991" height="500" preserveAspectRatio="xMidYMid meet" version="1.0"><defs><g/><clipPath id="5bfb2d6ba3"><path d="M 5.589844 241.238281 L 369.457031 241.238281 L 369.457031 353.738281 L 5.589844 353.738281 Z M 5.589844 241.238281 " clip-rule="nonzero"/></clipPath><clipPath id="4a93e3d2fa"><path d="M 22.839844 241.238281 L 352.160156 241.238281 C 356.734375 241.238281 361.125 243.058594 364.359375 246.292969 C 367.59375 249.527344 369.410156 253.914062 369.410156 258.488281 L 369.410156 336.488281 C 369.410156 341.066406 367.59375 345.453125 364.359375 348.6875 C 361.125 351.921875 356.734375 353.738281 352.160156 353.738281 L 22.839844 353.738281 C 18.265625 353.738281 13.875 351.921875 10.640625 348.6875 C 7.40625 345.453125 5.589844 341.066406 5.589844 336.488281 L 5.589844 258.488281 C 5.589844 253.914062 7.40625 249.527344 10.640625 246.292969 C 13.875 243.058594 18.265625 241.238281 22.839844 241.238281 Z M 22.839844 241.238281 " clip-rule="nonzero"/></clipPath></defs><g fill="#ffffff" fill-opacity="1"><g transform="translate(20.234412, 343.288195)"><g><path d="M 36.546875 -25.453125 L 29.4375 0 L 23.40625 0 L 18.640625 -18.125 L 13.640625 0 L 7.65625 0.03125 L 0.796875 -25.453125 L 6.265625 -25.453125 L 10.765625 -5.6875 L 15.9375 -25.453125 L 21.625 -25.453125 L 26.515625 -5.796875 L 31.03125 -25.453125 Z M 36.546875 -25.453125 "/></g></g></g><g fill="#ffffff" fill-opacity="1"><g transform="translate(70.320119, 343.288195)"><g><path d="M 7.625 -21.328125 L 7.625 -14.953125 L 16.1875 -14.953125 L 16.1875 -10.90625 L 7.625 -10.90625 L 7.625 -4.15625 L 17.28125 -4.15625 L 17.28125 0 L 2.515625 0 L 2.515625 -25.484375 L 17.28125 -25.484375 L 17.28125 -21.328125 Z M 7.625 -21.328125 "/></g></g></g><g fill="#ffffff" fill-opacity="1"><g transform="translate(102.474571, 343.288195)"><g><path d="M 16.953125 -13.0625 C 18.390625 -12.789062 19.566406 -12.070312 20.484375 -10.90625 C 21.410156 -9.738281 21.875 -8.398438 21.875 -6.890625 C 21.875 -5.523438 21.539062 -4.328125 20.875 -3.296875 C 20.207031 -2.265625 19.238281 -1.457031 17.96875 -0.875 C 16.707031 -0.289062 15.21875 0 13.5 0 L 2.515625 0 L 2.515625 -25.453125 L 13.015625 -25.453125 C 14.742188 -25.453125 16.234375 -25.171875 17.484375 -24.609375 C 18.734375 -24.054688 19.679688 -23.28125 20.328125 -22.28125 C 20.972656 -21.28125 21.296875 -20.148438 21.296875 -18.890625 C 21.296875 -17.410156 20.898438 -16.171875 20.109375 -15.171875 C 19.316406 -14.171875 18.265625 -13.46875 16.953125 -13.0625 Z M 7.625 -14.953125 L 12.296875 -14.953125 C 13.503906 -14.953125 14.4375 -15.222656 15.09375 -15.765625 C 15.75 -16.316406 16.078125 -17.101562 16.078125 -18.125 C 16.078125 -19.144531 15.75 -19.929688 15.09375 -20.484375 C 14.4375 -21.046875 13.503906 -21.328125 12.296875 -21.328125 L 7.625 -21.328125 Z M 12.765625 -4.15625 C 14.003906 -4.15625 14.96875 -4.445312 15.65625 -5.03125 C 16.351562 -5.613281 16.703125 -6.441406 16.703125 -7.515625 C 16.703125 -8.609375 16.335938 -9.460938 15.609375 -10.078125 C 14.878906 -10.703125 13.894531 -11.015625 12.65625 -11.015625 L 7.625 -11.015625 L 7.625 -4.15625 Z M 12.765625 -4.15625 "/></g></g></g><g fill="#ffffff" fill-opacity="1"><g transform="translate(138.674485, 343.288195)"><g/></g></g><g fill="#ffffff" fill-opacity="1"><g transform="translate(160.113906, 343.288195)"><g><path d="M 11.421875 -25.453125 C 14.085938 -25.453125 16.4375 -24.925781 18.46875 -23.875 C 20.5 -22.832031 22.066406 -21.34375 23.171875 -19.40625 C 24.273438 -17.476562 24.828125 -15.238281 24.828125 -12.6875 C 24.828125 -10.132812 24.273438 -7.90625 23.171875 -6 C 22.066406 -4.09375 20.5 -2.613281 18.46875 -1.5625 C 16.4375 -0.519531 14.085938 0 11.421875 0 L 2.515625 0 L 2.515625 -25.453125 Z M 11.234375 -4.34375 C 13.910156 -4.34375 15.976562 -5.070312 17.4375 -6.53125 C 18.894531 -7.988281 19.625 -10.039062 19.625 -12.6875 C 19.625 -15.34375 18.894531 -17.414062 17.4375 -18.90625 C 15.976562 -20.40625 13.910156 -21.15625 11.234375 -21.15625 L 7.625 -21.15625 L 7.625 -4.34375 Z M 11.234375 -4.34375 "/></g></g></g><g fill="#ffffff" fill-opacity="1"><g transform="translate(199.010801, 343.288195)"><g><path d="M 7.625 -21.328125 L 7.625 -14.953125 L 16.1875 -14.953125 L 16.1875 -10.90625 L 7.625 -10.90625 L 7.625 -4.15625 L 17.28125 -4.15625 L 17.28125 0 L 2.515625 0 L 2.515625 -25.484375 L 17.28125 -25.484375 L 17.28125 -21.328125 Z M 7.625 -21.328125 "/></g></g></g><g fill="#ffffff" fill-opacity="1"><g transform="translate(231.165247, 343.288195)"><g><path d="M 11.3125 0.25 C 9.53125 0.25 7.925781 -0.0507812 6.5 -0.65625 C 5.082031 -1.257812 3.957031 -2.132812 3.125 -3.28125 C 2.300781 -4.425781 1.878906 -5.773438 1.859375 -7.328125 L 7.328125 -7.328125 C 7.398438 -6.285156 7.769531 -5.457031 8.4375 -4.84375 C 9.113281 -4.238281 10.035156 -3.9375 11.203125 -3.9375 C 12.390625 -3.9375 13.320312 -4.222656 14 -4.796875 C 14.6875 -5.367188 15.03125 -6.113281 15.03125 -7.03125 C 15.03125 -7.789062 14.796875 -8.410156 14.328125 -8.890625 C 13.867188 -9.378906 13.289062 -9.765625 12.59375 -10.046875 C 11.90625 -10.328125 10.953125 -10.640625 9.734375 -10.984375 C 8.078125 -11.460938 6.734375 -11.9375 5.703125 -12.40625 C 4.671875 -12.882812 3.785156 -13.601562 3.046875 -14.5625 C 2.304688 -15.53125 1.9375 -16.816406 1.9375 -18.421875 C 1.9375 -19.921875 2.3125 -21.226562 3.0625 -22.34375 C 3.8125 -23.46875 4.867188 -24.328125 6.234375 -24.921875 C 7.597656 -25.515625 9.15625 -25.8125 10.90625 -25.8125 C 13.53125 -25.8125 15.660156 -25.171875 17.296875 -23.890625 C 18.941406 -22.617188 19.847656 -20.84375 20.015625 -18.5625 L 14.40625 -18.5625 C 14.351562 -19.4375 13.976562 -20.160156 13.28125 -20.734375 C 12.59375 -21.304688 11.679688 -21.59375 10.546875 -21.59375 C 9.546875 -21.59375 8.742188 -21.335938 8.140625 -20.828125 C 7.546875 -20.316406 7.25 -19.570312 7.25 -18.59375 C 7.25 -17.914062 7.472656 -17.351562 7.921875 -16.90625 C 8.378906 -16.457031 8.941406 -16.09375 9.609375 -15.8125 C 10.273438 -15.53125 11.21875 -15.207031 12.4375 -14.84375 C 14.09375 -14.351562 15.441406 -13.863281 16.484375 -13.375 C 17.523438 -12.894531 18.421875 -12.164062 19.171875 -11.1875 C 19.929688 -10.21875 20.3125 -8.941406 20.3125 -7.359375 C 20.3125 -6.003906 19.957031 -4.742188 19.25 -3.578125 C 18.550781 -2.410156 17.519531 -1.476562 16.15625 -0.78125 C 14.789062 -0.09375 13.175781 0.25 11.3125 0.25 Z M 11.3125 0.25 "/></g></g></g><g fill="#ffffff" fill-opacity="1"><g transform="translate(266.125995, 343.288195)"><g><path d="M 7.625 -25.453125 L 7.625 0 L 2.515625 0 L 2.515625 -25.453125 Z M 7.625 -25.453125 "/></g></g></g><g fill="#ffffff" fill-opacity="1"><g transform="translate(289.023233, 343.288195)"><g><path d="M 20.234375 -17.796875 C 19.648438 -18.867188 18.847656 -19.679688 17.828125 -20.234375 C 16.804688 -20.796875 15.617188 -21.078125 14.265625 -21.078125 C 12.753906 -21.078125 11.414062 -20.734375 10.25 -20.046875 C 9.082031 -19.367188 8.171875 -18.398438 7.515625 -17.140625 C 6.859375 -15.878906 6.53125 -14.421875 6.53125 -12.765625 C 6.53125 -11.066406 6.863281 -9.582031 7.53125 -8.3125 C 8.195312 -7.050781 9.125 -6.078125 10.3125 -5.390625 C 11.507812 -4.710938 12.898438 -4.375 14.484375 -4.375 C 16.421875 -4.375 18.007812 -4.890625 19.25 -5.921875 C 20.488281 -6.953125 21.304688 -8.394531 21.703125 -10.25 L 12.953125 -10.25 L 12.953125 -14.15625 L 26.734375 -14.15625 L 26.734375 -9.703125 C 26.390625 -7.921875 25.65625 -6.273438 24.53125 -4.765625 C 23.414062 -3.265625 21.976562 -2.054688 20.21875 -1.140625 C 18.457031 -0.234375 16.484375 0.21875 14.296875 0.21875 C 11.835938 0.21875 9.617188 -0.332031 7.640625 -1.4375 C 5.660156 -2.539062 4.101562 -4.078125 2.96875 -6.046875 C 1.84375 -8.015625 1.28125 -10.253906 1.28125 -12.765625 C 1.28125 -15.265625 1.84375 -17.503906 2.96875 -19.484375 C 4.101562 -21.472656 5.660156 -23.019531 7.640625 -24.125 C 9.617188 -25.226562 11.828125 -25.78125 14.265625 -25.78125 C 17.128906 -25.78125 19.617188 -25.082031 21.734375 -23.6875 C 23.847656 -22.289062 25.304688 -20.328125 26.109375 -17.796875 Z M 20.234375 -17.796875 "/></g></g></g><g fill="#ffffff" fill-opacity="1"><g transform="translate(329.778846, 343.288195)"><g><path d="M 24.28125 0 L 19.1875 0 L 7.625 -17.46875 L 7.625 0 L 2.515625 0 L 2.515625 -25.484375 L 7.625 -25.484375 L 19.1875 -7.984375 L 19.1875 -25.484375 L 24.28125 -25.484375 Z M 24.28125 0 "/></g></g></g><g fill="#000000" fill-opacity="1"><g transform="translate(192.0742, 222.691065)"><g><path d="M 44.5625 0 C 36.226562 0 28.609375 -2.078125 21.703125 -6.234375 C 14.804688 -10.398438 9.320312 -15.9375 5.25 -22.84375 C 1.1875 -29.75 -0.84375 -37.269531 -0.84375 -45.40625 C -0.84375 -52.21875 0.617188 -58.507812 3.546875 -64.28125 C 6.484375 -70.050781 10.03125 -75.300781 14.1875 -80.03125 L 59.59375 -125.15625 C 60.351562 -125.914062 60.445312 -126.671875 59.875 -127.421875 C 59.3125 -128.179688 58.554688 -128.375 57.609375 -128 L 34.34375 -111.53125 C 25.445312 -113.613281 18.160156 -117.253906 12.484375 -122.453125 C 6.804688 -127.660156 2.738281 -133.671875 0.28125 -140.484375 C -2.175781 -147.296875 -3.070312 -154.296875 -2.40625 -161.484375 C -1.75 -168.671875 0.421875 -175.382812 4.109375 -181.625 C 7.804688 -187.875 12.960938 -192.890625 19.578125 -196.671875 C 26.203125 -200.453125 34.242188 -202.34375 43.703125 -202.34375 L 113.515625 -202.34375 C 126.765625 -202.34375 137.972656 -199.976562 147.140625 -195.25 C 156.316406 -190.519531 163.554688 -184.273438 168.859375 -176.515625 C 174.160156 -168.765625 177.472656 -160.253906 178.796875 -150.984375 C 180.117188 -141.710938 179.597656 -132.488281 177.234375 -123.3125 C 174.867188 -114.132812 170.5625 -105.664062 164.3125 -97.90625 C 158.070312 -90.15625 150.078125 -83.910156 140.328125 -79.171875 C 130.585938 -74.441406 119.003906 -72.078125 105.578125 -72.078125 L 104.15625 -72.078125 C 113.238281 -69.617188 122.882812 -69.238281 133.09375 -70.9375 C 143.3125 -72.644531 152.394531 -76.148438 160.34375 -81.453125 C 166.96875 -76.722656 171.601562 -71.519531 174.25 -65.84375 C 176.894531 -60.164062 178.21875 -53.351562 178.21875 -45.40625 C 178.21875 -38.78125 176.179688 -31.921875 172.109375 -24.828125 C 168.046875 -17.734375 162.609375 -11.820312 155.796875 -7.09375 C 148.992188 -2.363281 141.425781 0 133.09375 0 Z M 44.5625 0 "/></g></g></g><g fill="#000000" fill-opacity="1"><g transform="translate(6.393976, 222.639686)"><g><path d="M 0 -156.359375 C 0 -164.890625 1.941406 -172.613281 5.828125 -179.53125 C 9.710938 -186.445312 15.113281 -191.941406 22.03125 -196.015625 C 28.945312 -200.097656 36.859375 -202.140625 45.765625 -202.140625 L 119.96875 -202.140625 C 128.875 -202.140625 136.691406 -199.910156 143.421875 -195.453125 C 150.148438 -190.992188 155.316406 -185.210938 158.921875 -178.109375 C 162.523438 -171.003906 164.28125 -163.421875 164.1875 -155.359375 C 164.09375 -147.304688 161.769531 -139.679688 157.21875 -132.484375 C 152.664062 -125.085938 147.070312 -119.921875 140.4375 -116.984375 C 133.8125 -114.046875 126.234375 -112.390625 117.703125 -112.015625 C 116.753906 -112.015625 116.28125 -111.492188 116.28125 -110.453125 C 116.28125 -109.410156 116.753906 -108.695312 117.703125 -108.3125 C 125.472656 -107.363281 133.050781 -107.882812 140.4375 -109.875 C 147.832031 -111.863281 154.375 -115.796875 160.0625 -121.671875 C 163.851562 -113.335938 165.082031 -104.289062 163.75 -94.53125 C 162.425781 -84.769531 158.640625 -76.757812 152.390625 -70.5 C 148.210938 -65.757812 143.375 -62.394531 137.875 -60.40625 C 132.382812 -58.414062 126.609375 -57.046875 120.546875 -56.296875 C 119.597656 -56.296875 119.125 -55.722656 119.125 -54.578125 C 119.125 -53.441406 119.597656 -52.875 120.546875 -52.875 C 127.929688 -52.113281 135.128906 -52.679688 142.140625 -54.578125 C 149.160156 -56.472656 155.320312 -60.550781 160.625 -66.8125 C 162.144531 -64.34375 163.234375 -61.59375 163.890625 -58.5625 C 164.554688 -55.53125 164.890625 -50.984375 164.890625 -44.921875 C 164.890625 -40.554688 164.035156 -35.769531 162.328125 -30.5625 C 160.628906 -25.351562 157.929688 -20.425781 154.234375 -15.78125 C 150.535156 -11.132812 145.890625 -7.34375 140.296875 -4.40625 C 134.703125 -1.46875 127.925781 0 119.96875 0 L 45.203125 0 C 36.859375 0 29.226562 -2.035156 22.3125 -6.109375 C 15.394531 -10.179688 9.945312 -15.628906 5.96875 -22.453125 C 1.988281 -29.273438 0 -36.765625 0 -44.921875 Z M 0 -156.359375 "/></g></g></g><g clip-path="url(#5bfb2d6ba3)"><g clip-path="url(#4a93e3d2fa)"><path fill="#c1c258" d="M 5.589844 241.238281 L 369.457031 241.238281 L 369.457031 353.738281 L 5.589844 353.738281 Z M 5.589844 241.238281 " fill-opacity="1" fill-rule="nonzero"/></g></g><g fill="#000000" fill-opacity="1"><g transform="translate(26.635621, 317.3645)"><g><path d="M 37.625 -15.234375 L 40.625 -29.578125 C 41.238281 -32.515625 42.117188 -34.898438 43.265625 -36.734375 C 44.421875 -38.566406 45.78125 -39.898438 47.34375 -40.734375 C 48.90625 -41.578125 50.625 -42 52.5 -42 L 42.78125 -1.015625 C 42.601562 -0.335938 42.160156 0 41.453125 0 L 35.28125 0 C 34.582031 0 34.140625 -0.335938 33.953125 -1.015625 L 26.4375 -25.984375 L 18.78125 -1.015625 C 18.601562 -0.335938 18.160156 0 17.453125 0 L 11.28125 0 C 10.582031 0 10.140625 -0.335938 9.953125 -1.015625 L 0.78125 -39.484375 C 0.695312 -39.878906 0.75 -40.195312 0.9375 -40.4375 C 1.132812 -40.675781 1.441406 -40.796875 1.859375 -40.796875 L 8.703125 -40.796875 C 9.460938 -40.796875 9.898438 -40.4375 10.015625 -39.71875 L 15.125 -15.296875 L 19.625 -30.234375 C 20.28125 -32.421875 20.960938 -34.210938 21.671875 -35.609375 C 22.378906 -37.003906 23.132812 -38.125 23.9375 -38.96875 C 24.738281 -39.8125 25.582031 -40.460938 26.46875 -40.921875 C 27.363281 -41.378906 28.320312 -41.738281 29.34375 -42 Z M 37.625 -15.234375 "/></g></g></g><g fill="#000000" fill-opacity="1"><g transform="translate(79.485165, 317.3645)"><g><path d="M 17.046875 -27.421875 C 19.054688 -27.421875 20.941406 -27.117188 22.703125 -26.515625 C 24.460938 -25.921875 26.019531 -25.046875 27.375 -23.890625 C 28.726562 -22.742188 29.785156 -21.320312 30.546875 -19.625 C 31.304688 -17.9375 31.6875 -15.992188 31.6875 -13.796875 L 31.6875 -12.71875 C 31.6875 -11.914062 31.285156 -11.515625 30.484375 -11.515625 L 11.15625 -11.515625 C 11.28125 -9.703125 11.84375 -8.238281 12.84375 -7.125 C 13.84375 -6.007812 15.179688 -5.453125 16.859375 -5.453125 C 18.179688 -5.453125 19.269531 -5.722656 20.125 -6.265625 C 20.988281 -6.804688 21.597656 -7.476562 21.953125 -8.28125 C 22.117188 -8.625 22.300781 -8.878906 22.5 -9.046875 C 22.695312 -9.210938 22.957031 -9.296875 23.28125 -9.296875 L 29.9375 -9.296875 C 30.351562 -9.296875 30.664062 -9.171875 30.875 -8.921875 C 31.09375 -8.671875 31.117188 -8.335938 30.953125 -7.921875 C 30.253906 -5.921875 29.226562 -4.265625 27.875 -2.953125 C 26.53125 -1.640625 24.9375 -0.660156 23.09375 -0.015625 C 21.257812 0.628906 19.242188 0.953125 17.046875 0.953125 C 14.765625 0.953125 12.675781 0.628906 10.78125 -0.015625 C 8.894531 -0.660156 7.269531 -1.597656 5.90625 -2.828125 C 4.550781 -4.066406 3.5 -5.5625 2.75 -7.3125 C 2 -9.0625 1.625 -11.023438 1.625 -13.203125 C 1.625 -15.359375 2.007812 -17.3125 2.78125 -19.0625 C 3.550781 -20.8125 4.625 -22.304688 6 -23.546875 C 7.375 -24.785156 9 -25.738281 10.875 -26.40625 C 12.757812 -27.082031 14.816406 -27.421875 17.046875 -27.421875 Z M 11.28125 -16.375 L 22.140625 -16.375 C 22.054688 -17.820312 21.535156 -19.003906 20.578125 -19.921875 C 19.617188 -20.835938 18.335938 -21.296875 16.734375 -21.296875 C 15.078125 -21.296875 13.816406 -20.835938 12.953125 -19.921875 C 12.097656 -19.003906 11.539062 -17.820312 11.28125 -16.375 Z M 11.28125 -16.375 "/></g></g></g><g fill="#000000" fill-opacity="1"><g transform="translate(112.898558, 317.3645)"><g><path d="M 20.9375 -27.421875 C 22.894531 -27.421875 24.675781 -27.070312 26.28125 -26.375 C 27.894531 -25.6875 29.285156 -24.710938 30.453125 -23.453125 C 31.628906 -22.191406 32.535156 -20.695312 33.171875 -18.96875 C 33.816406 -17.238281 34.140625 -15.335938 34.140625 -13.265625 C 34.140625 -11.160156 33.816406 -9.238281 33.171875 -7.5 C 32.535156 -5.757812 31.628906 -4.257812 30.453125 -3 C 29.285156 -1.738281 27.894531 -0.765625 26.28125 -0.078125 C 24.675781 0.609375 22.894531 0.953125 20.9375 0.953125 C 18.757812 0.953125 16.785156 0.519531 15.015625 -0.34375 C 13.242188 -1.21875 11.769531 -2.429688 10.59375 -3.984375 C 9.132812 -0.929688 6.5625 0.59375 2.875 0.59375 L 2.875 -45 C 5.800781 -44.394531 8.03125 -43.117188 9.5625 -41.171875 C 11.101562 -39.222656 11.875 -36.695312 11.875 -33.59375 L 11.875 -23.9375 C 13.019531 -25.0625 14.359375 -25.921875 15.890625 -26.515625 C 17.429688 -27.117188 19.113281 -27.421875 20.9375 -27.421875 Z M 18.1875 -6.234375 C 19.40625 -6.234375 20.488281 -6.53125 21.4375 -7.125 C 22.382812 -7.71875 23.128906 -8.535156 23.671875 -9.578125 C 24.210938 -10.628906 24.484375 -11.835938 24.484375 -13.203125 C 24.484375 -14.554688 24.210938 -15.757812 23.671875 -16.8125 C 23.128906 -17.863281 22.382812 -18.679688 21.4375 -19.265625 C 20.488281 -19.859375 19.40625 -20.15625 18.1875 -20.15625 C 16.957031 -20.15625 15.867188 -19.859375 14.921875 -19.265625 C 13.972656 -18.679688 13.226562 -17.863281 12.6875 -16.8125 C 12.144531 -15.757812 11.875 -14.554688 11.875 -13.203125 C 11.875 -11.835938 12.144531 -10.628906 12.6875 -9.578125 C 13.226562 -8.535156 13.972656 -7.71875 14.921875 -7.125 C 15.867188 -6.53125 16.957031 -6.234375 18.1875 -6.234375 Z M 18.1875 -6.234375 "/></g></g></g><g fill="#000000" fill-opacity="1"><g transform="translate(148.771469, 317.3645)"><g/></g></g><g fill="#000000" fill-opacity="1"><g transform="translate(164.36838, 317.3645)"><g><path d="M 14.15625 0 L 4.4375 0 C 3.632812 0 3.234375 -0.398438 3.234375 -1.203125 L 3.234375 -39.59375 C 3.234375 -40.394531 3.632812 -40.796875 4.4375 -40.796875 L 14.15625 -40.796875 C 17.9375 -40.796875 21.210938 -40.28125 23.984375 -39.25 C 26.753906 -38.21875 29.046875 -36.769531 30.859375 -34.90625 C 32.679688 -33.050781 34.03125 -30.890625 34.90625 -28.421875 C 35.789062 -25.953125 36.234375 -23.28125 36.234375 -20.40625 C 36.234375 -17.519531 35.789062 -14.84375 34.90625 -12.375 C 34.03125 -9.90625 32.6875 -7.738281 30.875 -5.875 C 29.070312 -4.019531 26.785156 -2.578125 24.015625 -1.546875 C 21.242188 -0.515625 17.957031 0 14.15625 0 Z M 12.234375 -32.640625 L 12.234375 -8.15625 L 15 -8.15625 C 17.175781 -8.15625 19.039062 -8.46875 20.59375 -9.09375 C 22.144531 -9.726562 23.410156 -10.601562 24.390625 -11.71875 C 25.367188 -12.84375 26.085938 -14.144531 26.546875 -15.625 C 27.003906 -17.101562 27.234375 -18.695312 27.234375 -20.40625 C 27.234375 -22.101562 27.003906 -23.691406 26.546875 -25.171875 C 26.085938 -26.648438 25.375 -27.945312 24.40625 -29.0625 C 23.4375 -30.1875 22.175781 -31.0625 20.625 -31.6875 C 19.070312 -32.320312 17.195312 -32.640625 15 -32.640625 Z M 12.234375 -32.640625 "/></g></g></g><g fill="#000000" fill-opacity="1"><g transform="translate(202.22089, 317.3645)"><g><path d="M 17.046875 -27.421875 C 19.054688 -27.421875 20.941406 -27.117188 22.703125 -26.515625 C 24.460938 -25.921875 26.019531 -25.046875 27.375 -23.890625 C 28.726562 -22.742188 29.785156 -21.320312 30.546875 -19.625 C 31.304688 -17.9375 31.6875 -15.992188 31.6875 -13.796875 L 31.6875 -12.71875 C 31.6875 -11.914062 31.285156 -11.515625 30.484375 -11.515625 L 11.15625 -11.515625 C 11.28125 -9.703125 11.84375 -8.238281 12.84375 -7.125 C 13.84375 -6.007812 15.179688 -5.453125 16.859375 -5.453125 C 18.179688 -5.453125 19.269531 -5.722656 20.125 -6.265625 C 20.988281 -6.804688 21.597656 -7.476562 21.953125 -8.28125 C 22.117188 -8.625 22.300781 -8.878906 22.5 -9.046875 C 22.695312 -9.210938 22.957031 -9.296875 23.28125 -9.296875 L 29.9375 -9.296875 C 30.351562 -9.296875 30.664062 -9.171875 30.875 -8.921875 C 31.09375 -8.671875 31.117188 -8.335938 30.953125 -7.921875 C 30.253906 -5.921875 29.226562 -4.265625 27.875 -2.953125 C 26.53125 -1.640625 24.9375 -0.660156 23.09375 -0.015625 C 21.257812 0.628906 19.242188 0.953125 17.046875 0.953125 C 14.765625 0.953125 12.675781 0.628906 10.78125 -0.015625 C 8.894531 -0.660156 7.269531 -1.597656 5.90625 -2.828125 C 4.550781 -4.066406 3.5 -5.5625 2.75 -7.3125 C 2 -9.0625 1.625 -11.023438 1.625 -13.203125 C 1.625 -15.359375 2.007812 -17.3125 2.78125 -19.0625 C 3.550781 -20.8125 4.625 -22.304688 6 -23.546875 C 7.375 -24.785156 9 -25.738281 10.875 -26.40625 C 12.757812 -27.082031 14.816406 -27.421875 17.046875 -27.421875 Z M 11.28125 -16.375 L 22.140625 -16.375 C 22.054688 -17.820312 21.535156 -19.003906 20.578125 -19.921875 C 19.617188 -20.835938 18.335938 -21.296875 16.734375 -21.296875 C 15.078125 -21.296875 13.816406 -20.835938 12.953125 -19.921875 C 12.097656 -19.003906 11.539062 -17.820312 11.28125 -16.375 Z M 11.28125 -16.375 "/></g></g></g><g fill="#000000" fill-opacity="1"><g transform="translate(235.634293, 317.3645)"><g><path d="M 15.953125 0.953125 C 13.421875 0.953125 11.140625 0.617188 9.109375 -0.046875 C 7.078125 -0.710938 5.40625 -1.742188 4.09375 -3.140625 C 2.78125 -4.546875 1.9375 -6.359375 1.5625 -8.578125 C 1.5 -8.984375 1.578125 -9.296875 1.796875 -9.515625 C 2.015625 -9.734375 2.316406 -9.84375 2.703125 -9.84375 L 9.234375 -9.84375 C 9.597656 -9.84375 9.878906 -9.738281 10.078125 -9.53125 C 10.273438 -9.332031 10.414062 -9.054688 10.5 -8.703125 C 10.675781 -8.003906 10.988281 -7.425781 11.4375 -6.96875 C 11.894531 -6.519531 12.40625 -6.171875 12.96875 -5.921875 C 13.539062 -5.671875 14.113281 -5.5 14.6875 -5.40625 C 15.257812 -5.320312 15.742188 -5.28125 16.140625 -5.28125 C 17.554688 -5.28125 18.597656 -5.523438 19.265625 -6.015625 C 19.941406 -6.503906 20.28125 -7.117188 20.28125 -7.859375 C 20.28125 -8.484375 20.03125 -8.972656 19.53125 -9.328125 C 19.03125 -9.691406 18.359375 -9.972656 17.515625 -10.171875 C 16.679688 -10.367188 15.738281 -10.539062 14.6875 -10.6875 C 13.632812 -10.84375 12.546875 -11.019531 11.421875 -11.21875 C 10.304688 -11.414062 9.222656 -11.679688 8.171875 -12.015625 C 7.117188 -12.347656 6.171875 -12.789062 5.328125 -13.34375 C 4.492188 -13.90625 3.828125 -14.632812 3.328125 -15.53125 C 2.828125 -16.4375 2.578125 -17.5625 2.578125 -18.90625 C 2.578125 -20.601562 3.054688 -22.09375 4.015625 -23.375 C 4.972656 -24.65625 6.382812 -25.648438 8.25 -26.359375 C 10.113281 -27.066406 12.40625 -27.421875 15.125 -27.421875 C 18.644531 -27.421875 21.519531 -26.785156 23.75 -25.515625 C 25.976562 -24.242188 27.421875 -22.316406 28.078125 -19.734375 C 28.179688 -19.316406 28.128906 -18.992188 27.921875 -18.765625 C 27.722656 -18.535156 27.414062 -18.421875 27 -18.421875 L 20.578125 -18.421875 C 19.960938 -18.421875 19.503906 -18.757812 19.203125 -19.4375 C 18.835938 -20.21875 18.3125 -20.8125 17.625 -21.21875 C 16.9375 -21.632812 15.941406 -21.84375 14.640625 -21.84375 C 13.597656 -21.84375 12.835938 -21.664062 12.359375 -21.3125 C 11.878906 -20.96875 11.640625 -20.5625 11.640625 -20.09375 C 11.640625 -19.519531 11.890625 -19.0625 12.390625 -18.71875 C 12.890625 -18.375 13.554688 -18.097656 14.390625 -17.890625 C 15.234375 -17.679688 16.179688 -17.492188 17.234375 -17.328125 C 18.285156 -17.171875 19.367188 -16.984375 20.484375 -16.765625 C 21.609375 -16.546875 22.691406 -16.253906 23.734375 -15.890625 C 24.785156 -15.535156 25.734375 -15.050781 26.578125 -14.4375 C 27.421875 -13.832031 28.09375 -13.0625 28.59375 -12.125 C 29.09375 -11.195312 29.34375 -10.054688 29.34375 -8.703125 C 29.34375 -6.660156 28.8125 -4.914062 27.75 -3.46875 C 26.6875 -2.03125 25.160156 -0.929688 23.171875 -0.171875 C 21.179688 0.578125 18.773438 0.953125 15.953125 0.953125 Z M 15.953125 0.953125 "/></g></g></g><g fill="#000000" fill-opacity="1"><g transform="translate(266.648147, 317.3645)"><g><path d="M 6.953125 -31.6875 C 5.859375 -31.6875 4.804688 -31.863281 3.796875 -32.21875 C 2.785156 -32.582031 1.957031 -33.125 1.3125 -33.84375 C 0.675781 -34.5625 0.359375 -35.460938 0.359375 -36.546875 C 0.359375 -37.597656 0.675781 -38.484375 1.3125 -39.203125 C 1.957031 -39.929688 2.785156 -40.476562 3.796875 -40.84375 C 4.804688 -41.21875 5.859375 -41.40625 6.953125 -41.40625 C 8.035156 -41.40625 9.082031 -41.21875 10.09375 -40.84375 C 11.101562 -40.476562 11.929688 -39.929688 12.578125 -39.203125 C 13.234375 -38.484375 13.5625 -37.597656 13.5625 -36.546875 C 13.5625 -35.460938 13.234375 -34.5625 12.578125 -33.84375 C 11.929688 -33.125 11.101562 -32.582031 10.09375 -32.21875 C 9.082031 -31.863281 8.035156 -31.6875 6.953125 -31.6875 Z M 10.6875 0 L 4.078125 0 C 3.273438 0 2.875 -0.398438 2.875 -1.203125 L 2.875 -27.0625 C 5.800781 -26.457031 8.03125 -25.179688 9.5625 -23.234375 C 11.101562 -21.285156 11.875 -18.757812 11.875 -15.65625 L 11.875 -1.203125 C 11.875 -0.398438 11.476562 0 10.6875 0 Z M 10.6875 0 "/></g></g></g><g fill="#000000" fill-opacity="1"><g transform="translate(281.045317, 317.3645)"><g><path d="M 25.296875 -22.46875 C 26.753906 -25.53125 29.320312 -27.0625 33 -27.0625 L 33 2.34375 C 33 5.238281 32.347656 7.617188 31.046875 9.484375 C 29.742188 11.359375 27.941406 12.742188 25.640625 13.640625 C 23.347656 14.546875 20.703125 15 17.703125 15 C 15.859375 15 14.070312 14.8125 12.34375 14.4375 C 10.613281 14.070312 9.039062 13.488281 7.625 12.6875 C 6.21875 11.882812 5.050781 10.816406 4.125 9.484375 C 3.195312 8.160156 2.601562 6.539062 2.34375 4.625 C 2.28125 4.21875 2.359375 3.90625 2.578125 3.6875 C 2.796875 3.46875 3.097656 3.359375 3.484375 3.359375 L 10.078125 3.359375 C 10.773438 3.359375 11.21875 3.738281 11.40625 4.5 C 11.695312 5.78125 12.390625 6.738281 13.484375 7.375 C 14.578125 8.019531 16.019531 8.34375 17.8125 8.34375 C 19.800781 8.34375 21.328125 7.859375 22.390625 6.890625 C 23.460938 5.929688 24 4.394531 24 2.28125 L 24 -2.515625 C 22.863281 -1.421875 21.53125 -0.570312 20 0.03125 C 18.46875 0.644531 16.78125 0.953125 14.9375 0.953125 C 13 0.953125 11.21875 0.609375 9.59375 -0.078125 C 7.976562 -0.765625 6.582031 -1.738281 5.40625 -3 C 4.238281 -4.257812 3.332031 -5.757812 2.6875 -7.5 C 2.050781 -9.238281 1.734375 -11.160156 1.734375 -13.265625 C 1.734375 -15.335938 2.050781 -17.238281 2.6875 -18.96875 C 3.332031 -20.695312 4.238281 -22.191406 5.40625 -23.453125 C 6.582031 -24.710938 7.976562 -25.6875 9.59375 -26.375 C 11.21875 -27.070312 13 -27.421875 14.9375 -27.421875 C 17.132812 -27.421875 19.117188 -26.984375 20.890625 -26.109375 C 22.660156 -25.242188 24.128906 -24.03125 25.296875 -22.46875 Z M 17.703125 -6.234375 C 18.921875 -6.234375 20.003906 -6.53125 20.953125 -7.125 C 21.898438 -7.71875 22.644531 -8.535156 23.1875 -9.578125 C 23.726562 -10.628906 24 -11.835938 24 -13.203125 C 24 -14.554688 23.726562 -15.757812 23.1875 -16.8125 C 22.644531 -17.863281 21.898438 -18.679688 20.953125 -19.265625 C 20.003906 -19.859375 18.921875 -20.15625 17.703125 -20.15625 C 16.484375 -20.15625 15.394531 -19.859375 14.4375 -19.265625 C 13.488281 -18.679688 12.742188 -17.863281 12.203125 -16.8125 C 11.671875 -15.757812 11.40625 -14.554688 11.40625 -13.203125 C 11.40625 -11.835938 11.671875 -10.628906 12.203125 -9.578125 C 12.742188 -8.535156 13.488281 -7.71875 14.4375 -7.125 C 15.394531 -6.53125 16.484375 -6.234375 17.703125 -6.234375 Z M 17.703125 -6.234375 "/></g></g></g><g fill="#000000" fill-opacity="1"><g transform="translate(316.978206, 317.3645)"><g><path d="M 19.921875 -27.421875 C 22.273438 -27.421875 24.179688 -26.914062 25.640625 -25.90625 C 27.109375 -24.894531 28.179688 -23.484375 28.859375 -21.671875 C 29.535156 -19.859375 29.875 -17.753906 29.875 -15.359375 L 29.875 -1.203125 C 29.875 -0.398438 29.476562 0 28.6875 0 L 22.078125 0 C 21.273438 0 20.875 -0.398438 20.875 -1.203125 L 20.875 -15.359375 C 20.875 -16.921875 20.554688 -18.117188 19.921875 -18.953125 C 19.296875 -19.796875 18.273438 -20.21875 16.859375 -20.21875 C 15.578125 -20.21875 14.472656 -19.75 13.546875 -18.8125 C 12.617188 -17.875 12.0625 -16.570312 11.875 -14.90625 L 11.875 -1.203125 C 11.875 -0.398438 11.476562 0 10.6875 0 L 4.078125 0 C 3.273438 0 2.875 -0.398438 2.875 -1.203125 L 2.875 -27.0625 C 4.65625 -26.695312 6.179688 -26.070312 7.453125 -25.1875 C 8.722656 -24.3125 9.726562 -23.207031 10.46875 -21.875 C 11.832031 -23.894531 13.3125 -25.320312 14.90625 -26.15625 C 16.507812 -27 18.179688 -27.421875 19.921875 -27.421875 Z M 19.921875 -27.421875 "/></g></g></g></svg>