<svg xmlns="http://www.w3.org/2000/svg" xmlns:xlink="http://www.w3.org/1999/xlink" width="800" zoomAndPan="magnify" viewBox="0 0 600 374.999991" height="500" preserveAspectRatio="xMidYMid meet" version="1.0"><defs><g/><clipPath id="20042638a5"><path d="M 7.429688 69.925781 L 195.132812 69.925781 L 195.132812 314.816406 L 7.429688 314.816406 Z M 7.429688 69.925781 " clip-rule="nonzero"/></clipPath><clipPath id="217c58d52e"><path d="M 45.40625 69.925781 L 157.15625 69.925781 C 167.226562 69.925781 176.886719 73.925781 184.007812 81.046875 C 191.128906 88.171875 195.132812 97.828125 195.132812 107.902344 L 195.132812 277.125 C 195.132812 287.199219 191.128906 296.855469 184.007812 303.980469 C 176.886719 311.101562 167.226562 315.101562 157.15625 315.101562 L 45.40625 315.101562 C 35.335938 315.101562 25.675781 311.101562 18.550781 303.980469 C 11.429688 296.855469 7.429688 287.199219 7.429688 277.125 L 7.429688 107.902344 C 7.429688 97.828125 11.429688 88.171875 18.550781 81.046875 C 25.675781 73.925781 35.335938 69.925781 45.40625 69.925781 Z M 45.40625 69.925781 " clip-rule="nonzero"/></clipPath><linearGradient x1="0.0000000415335" gradientTransform="matrix(0.733212, 0, 0, 0.733212, 7.429139, 69.920258)" y1="167.194" x2="256.000004" gradientUnits="userSpaceOnUse" y2="167.194" id="73de0674a9"><stop stop-opacity="1" stop-color="rgb(0%, 43.899536%, 87.799072%)" offset="0"/><stop stop-opacity="1" stop-color="rgb(0.012207%, 43.997192%, 87.989807%)" offset="0.03125"/><stop stop-opacity="1" stop-color="rgb(0.0366211%, 44.194031%, 88.371277%)" offset="0.0625"/><stop stop-opacity="1" stop-color="rgb(0.0610352%, 44.390869%, 88.752747%)" offset="0.09375"/><stop stop-opacity="1" stop-color="rgb(0.0869751%, 44.587708%, 89.134216%)" offset="0.125"/><stop stop-opacity="1" stop-color="rgb(0.111389%, 44.784546%, 89.51416%)" offset="0.15625"/><stop stop-opacity="1" stop-color="rgb(0.135803%, 44.981384%, 89.89563%)" offset="0.1875"/><stop stop-opacity="1" stop-color="rgb(0.161743%, 45.178223%, 90.2771%)" offset="0.21875"/><stop stop-opacity="1" stop-color="rgb(0.186157%, 45.375061%, 90.658569%)" offset="0.25"/><stop stop-opacity="1" stop-color="rgb(0.212097%, 45.571899%, 91.040039%)" offset="0.28125"/><stop stop-opacity="1" stop-color="rgb(0.236511%, 45.768738%, 91.421509%)" offset="0.3125"/><stop stop-opacity="1" stop-color="rgb(0.260925%, 45.965576%, 91.802979%)" offset="0.34375"/><stop stop-opacity="1" stop-color="rgb(0.286865%, 46.162415%, 92.182922%)" offset="0.375"/><stop stop-opacity="1" stop-color="rgb(0.311279%, 46.359253%, 92.564392%)" offset="0.40625"/><stop stop-opacity="1" stop-color="rgb(0.335693%, 46.556091%, 92.945862%)" offset="0.4375"/><stop stop-opacity="1" stop-color="rgb(0.361633%, 46.75293%, 93.327332%)" offset="0.46875"/><stop stop-opacity="1" stop-color="rgb(0.386047%, 46.949768%, 93.708801%)" offset="0.5"/><stop stop-opacity="1" stop-color="rgb(0.411987%, 47.146606%, 94.090271%)" offset="0.53125"/><stop stop-opacity="1" stop-color="rgb(0.436401%, 47.343445%, 94.471741%)" offset="0.5625"/><stop stop-opacity="1" stop-color="rgb(0.460815%, 47.540283%, 94.851685%)" offset="0.59375"/><stop stop-opacity="1" stop-color="rgb(0.486755%, 47.737122%, 95.233154%)" offset="0.625"/><stop stop-opacity="1" stop-color="rgb(0.511169%, 47.93396%, 95.614624%)" offset="0.65625"/><stop stop-opacity="1" stop-color="rgb(0.537109%, 48.130798%, 95.996094%)" offset="0.6875"/><stop stop-opacity="1" stop-color="rgb(0.561523%, 48.327637%, 96.377563%)" offset="0.71875"/><stop stop-opacity="1" stop-color="rgb(0.585938%, 48.524475%, 96.759033%)" offset="0.75"/><stop stop-opacity="1" stop-color="rgb(0.611877%, 48.721313%, 97.140503%)" offset="0.78125"/><stop stop-opacity="1" stop-color="rgb(0.636292%, 48.918152%, 97.520447%)" offset="0.8125"/><stop stop-opacity="1" stop-color="rgb(0.660706%, 49.11499%, 97.901917%)" offset="0.84375"/><stop stop-opacity="1" stop-color="rgb(0.686646%, 49.311829%, 98.283386%)" offset="0.875"/><stop stop-opacity="1" stop-color="rgb(0.71106%, 49.510193%, 98.664856%)" offset="0.90625"/><stop stop-opacity="1" stop-color="rgb(0.737%, 49.707031%, 99.046326%)" offset="0.9375"/><stop stop-opacity="1" stop-color="rgb(0.761414%, 49.90387%, 99.427795%)" offset="0.96875"/><stop stop-opacity="1" stop-color="rgb(0.785828%, 50.100708%, 99.809265%)" offset="1"/></linearGradient></defs><g clip-path="url(#20042638a5)"><g clip-path="url(#217c58d52e)"><path fill="url(#73de0674a9)" d="M 7.429688 69.925781 L 7.429688 314.816406 L 195.132812 314.816406 L 195.132812 69.925781 Z M 7.429688 69.925781 " fill-rule="nonzero"/></g></g><g fill="#ffffff" fill-opacity="1"><g transform="translate(31.351601, 209.764183)"><g><path d="M 50.609375 -117.0625 L 102.15625 -117.0625 C 106.414062 -117.0625 109.960938 -117.0625 112.796875 -117.0625 C 115.640625 -117.0625 117.769531 -116.984375 119.1875 -116.828125 C 124.382812 -116.671875 127.929688 -115.722656 129.828125 -113.984375 C 132.035156 -112.410156 133.140625 -109.179688 133.140625 -104.296875 C 133.140625 -103.660156 133.140625 -102.910156 133.140625 -102.046875 C 133.140625 -101.179688 133.0625 -100.273438 132.90625 -99.328125 C 132.75 -97.898438 132.507812 -95.925781 132.1875 -93.40625 C 131.875 -90.882812 131.484375 -87.734375 131.015625 -83.953125 L 129.59375 -75.203125 C 128.332031 -65.585938 127.304688 -59.28125 126.515625 -56.28125 C 125.566406 -51.863281 124.070312 -48.632812 122.03125 -46.59375 C 119.820312 -44.539062 116.429688 -43.195312 111.859375 -42.5625 C 108.859375 -42.09375 103.179688 -41.859375 94.828125 -41.859375 L 41.625 -41.859375 C 40.988281 -41.859375 40.359375 -41.539062 39.734375 -40.90625 C 39.410156 -40.59375 39.09375 -39.648438 38.78125 -38.078125 C 38.78125 -37.285156 38.546875 -35.707031 38.078125 -33.34375 L 90.09375 -33.34375 C 99.394531 -33.34375 105.3125 -33.109375 107.84375 -32.640625 C 111.625 -32.160156 114.222656 -30.976562 115.640625 -29.09375 C 117.367188 -27.351562 118.394531 -23.882812 118.71875 -18.6875 C 119.03125 -17.257812 119.1875 -15.320312 119.1875 -12.875 C 119.1875 -10.4375 119.1875 -7.484375 119.1875 -4.015625 L 119.1875 0 L 29.796875 0 C 25.066406 0 21.164062 -0.113281 18.09375 -0.34375 C 15.019531 -0.582031 12.613281 -0.785156 10.875 -0.953125 C 7.5625 -1.890625 5.195312 -3.382812 3.78125 -5.4375 C 2.832031 -7.332031 2.359375 -9.773438 2.359375 -12.765625 L 2.359375 -14.65625 C 2.515625 -17.5 3.226562 -23.726562 4.5 -33.34375 L 11.59375 -83.953125 L 14.421875 -100.984375 C 15.523438 -106.492188 17.179688 -110.351562 19.390625 -112.5625 C 21.910156 -114.769531 25.222656 -116.113281 29.328125 -116.59375 C 31.054688 -116.90625 33.691406 -117.0625 37.234375 -117.0625 C 40.785156 -117.0625 45.242188 -117.0625 50.609375 -117.0625 Z M 51.078125 -83.953125 C 48.710938 -83.953125 47.375 -83.875 47.0625 -83.71875 C 46.75 -83.5625 46.273438 -83.164062 45.640625 -82.53125 C 45.328125 -81.90625 45.015625 -81.195312 44.703125 -80.40625 C 44.703125 -79.769531 44.460938 -78.035156 43.984375 -75.203125 L 92.9375 -75.203125 C 94.195312 -75.359375 95.144531 -75.753906 95.78125 -76.390625 C 96.25 -76.859375 96.484375 -77.566406 96.484375 -78.515625 C 96.796875 -79.617188 97.03125 -81.429688 97.1875 -83.953125 Z M 51.078125 -83.953125 "/></g></g></g><g fill="#ffffff" fill-opacity="1"><g transform="translate(32.902267, 288.931009)"><g><path d="M 114.125 0 L 27 0 C 19.894531 0 14.976562 -0.226562 12.25 -0.6875 C 8.019531 -1.4375 5.222656 -2.796875 3.859375 -4.765625 C 2.796875 -6.878906 2.265625 -9.453125 2.265625 -12.484375 L 2.265625 -13.84375 C 2.566406 -17.019531 3.25 -23.066406 4.3125 -31.984375 L 5.453125 -40.15625 C 6.203125 -45 6.800781 -48.929688 7.25 -51.953125 C 7.707031 -54.984375 8.085938 -57.253906 8.390625 -58.765625 C 9.753906 -63.609375 11.492188 -66.859375 13.609375 -68.515625 C 15.429688 -69.878906 17.703125 -70.789062 20.421875 -71.25 C 22.085938 -71.550781 24.46875 -71.773438 27.5625 -71.921875 C 30.664062 -72.078125 34.488281 -72.15625 39.03125 -72.15625 L 84.859375 -72.15625 C 87.128906 -72.15625 89.019531 -72.679688 90.53125 -73.734375 C 91.738281 -74.492188 92.34375 -75.476562 92.34375 -76.6875 L 92.34375 -77.140625 C 92.34375 -78.203125 91.8125 -78.957031 90.75 -79.40625 C 89.84375 -80.164062 88.253906 -80.546875 85.984375 -80.546875 L 11.125 -80.546875 C 12.476562 -90.828125 13.609375 -97.40625 14.515625 -100.28125 C 15.421875 -103.613281 16.707031 -106.109375 18.375 -107.765625 C 20.1875 -109.890625 23.210938 -111.175781 27.453125 -111.625 C 30.628906 -112.082031 37.359375 -112.3125 47.640625 -112.3125 L 97.796875 -112.3125 C 102.484375 -112.3125 106.335938 -112.3125 109.359375 -112.3125 C 112.390625 -112.3125 114.582031 -112.160156 115.9375 -111.859375 C 120.320312 -111.398438 123.273438 -110.414062 124.796875 -108.90625 C 126.609375 -107.394531 127.515625 -104.445312 127.515625 -100.0625 C 127.515625 -99.457031 127.515625 -98.8125 127.515625 -98.125 C 127.515625 -97.445312 127.4375 -96.65625 127.28125 -95.75 C 127.28125 -94.539062 127.128906 -92.6875 126.828125 -90.1875 C 126.523438 -87.6875 126.070312 -84.472656 125.46875 -80.546875 L 124.34375 -72.15625 C 123.125 -63.375 122.210938 -57.550781 121.609375 -54.6875 C 120.554688 -49.6875 118.894531 -46.207031 116.625 -44.25 C 114.5 -42.28125 110.414062 -41.066406 104.375 -40.609375 C 103.007812 -40.460938 101.226562 -40.347656 99.03125 -40.265625 C 96.84375 -40.191406 94.234375 -40.15625 91.203125 -40.15625 L 46.515625 -40.15625 C 43.640625 -40.15625 41.445312 -39.78125 39.9375 -39.03125 C 38.113281 -38.113281 37.203125 -36.976562 37.203125 -35.625 C 37.203125 -34.863281 37.8125 -34.03125 39.03125 -33.125 C 40.539062 -32.363281 42.503906 -31.984375 44.921875 -31.984375 L 86.4375 -31.984375 C 92.039062 -31.984375 96.582031 -31.90625 100.0625 -31.75 C 103.539062 -31.601562 106.035156 -31.378906 107.546875 -31.078125 C 111.472656 -30.628906 114.046875 -29.191406 115.265625 -26.765625 C 116.171875 -25.410156 116.625 -23.21875 116.625 -20.1875 C 116.625 -19.582031 116.625 -18.863281 116.625 -18.03125 C 116.625 -17.207031 116.546875 -16.265625 116.390625 -15.203125 C 116.242188 -13.992188 116.019531 -12.140625 115.71875 -9.640625 C 115.414062 -7.148438 114.882812 -3.9375 114.125 0 Z M 114.125 0 "/></g></g></g><g fill="#404040" fill-opacity="1"><g transform="translate(211.30514, 294.369959)"><g><path d="M 7.953125 0 L 7.953125 -89.015625 L 35.34375 -89.015625 C 43.164062 -89.015625 50.164062 -87.25 56.34375 -83.71875 C 62.519531 -80.195312 67.335938 -75.1875 70.796875 -68.6875 C 74.265625 -62.1875 76 -54.800781 76 -46.53125 L 76 -42.4375 C 76 -34.15625 74.296875 -26.796875 70.890625 -20.359375 C 67.484375 -13.921875 62.679688 -8.925781 56.484375 -5.375 C 50.296875 -1.832031 43.3125 -0.0390625 35.53125 0 Z M 26.296875 -74.171875 L 26.296875 -14.734375 L 35.15625 -14.734375 C 42.332031 -14.734375 47.816406 -17.078125 51.609375 -21.765625 C 55.398438 -26.453125 57.332031 -33.15625 57.40625 -41.875 L 57.40625 -46.59375 C 57.40625 -55.632812 55.53125 -62.488281 51.78125 -67.15625 C 48.03125 -71.832031 42.550781 -74.171875 35.34375 -74.171875 Z M 26.296875 -74.171875 "/></g></g></g><g fill="#404040" fill-opacity="1"><g transform="translate(292.67756, 294.369959)"><g><path d="M 37.234375 1.21875 C 27.535156 1.21875 19.640625 -1.753906 13.546875 -7.703125 C 7.453125 -13.648438 4.40625 -21.578125 4.40625 -31.484375 L 4.40625 -33.203125 C 4.40625 -39.847656 5.6875 -45.785156 8.25 -51.015625 C 10.820312 -56.253906 14.460938 -60.289062 19.171875 -63.125 C 23.878906 -65.957031 29.25 -67.375 35.28125 -67.375 C 44.332031 -67.375 51.453125 -64.519531 56.640625 -58.8125 C 61.835938 -53.113281 64.4375 -45.023438 64.4375 -34.546875 L 64.4375 -27.328125 L 22.3125 -27.328125 C 22.882812 -23.003906 24.609375 -19.535156 27.484375 -16.921875 C 30.359375 -14.316406 33.992188 -13.015625 38.390625 -13.015625 C 45.203125 -13.015625 50.523438 -15.484375 54.359375 -20.421875 L 63.03125 -10.703125 C 60.382812 -6.953125 56.796875 -4.023438 52.265625 -1.921875 C 47.742188 0.171875 42.734375 1.21875 37.234375 1.21875 Z M 35.21875 -53.078125 C 31.707031 -53.078125 28.863281 -51.894531 26.6875 -49.53125 C 24.507812 -47.164062 23.113281 -43.78125 22.5 -39.375 L 47.078125 -39.375 L 47.078125 -40.78125 C 46.992188 -44.695312 45.929688 -47.722656 43.890625 -49.859375 C 41.859375 -52.003906 38.96875 -53.078125 35.21875 -53.078125 Z M 35.21875 -53.078125 "/></g></g></g><g fill="#404040" fill-opacity="1"><g transform="translate(360.35545, 294.369959)"><g><path d="M 42.609375 -18.28125 C 42.609375 -20.4375 41.539062 -22.132812 39.40625 -23.375 C 37.269531 -24.625 33.835938 -25.738281 29.109375 -26.71875 C 13.367188 -30.019531 5.5 -36.707031 5.5 -46.78125 C 5.5 -52.644531 7.929688 -57.539062 12.796875 -61.46875 C 17.671875 -65.40625 24.046875 -67.375 31.921875 -67.375 C 40.316406 -67.375 47.03125 -65.394531 52.0625 -61.4375 C 57.09375 -57.488281 59.609375 -52.359375 59.609375 -46.046875 L 41.9375 -46.046875 C 41.9375 -48.566406 41.117188 -50.648438 39.484375 -52.296875 C 37.859375 -53.953125 35.316406 -54.78125 31.859375 -54.78125 C 28.878906 -54.78125 26.570312 -54.109375 24.9375 -52.765625 C 23.3125 -51.421875 22.5 -49.707031 22.5 -47.625 C 22.5 -45.664062 23.425781 -44.085938 25.28125 -42.890625 C 27.132812 -41.691406 30.257812 -40.648438 34.65625 -39.765625 C 39.0625 -38.890625 42.773438 -37.90625 45.796875 -36.8125 C 55.128906 -33.382812 59.796875 -27.453125 59.796875 -19.015625 C 59.796875 -12.984375 57.207031 -8.101562 52.03125 -4.375 C 46.851562 -0.644531 40.171875 1.21875 31.984375 1.21875 C 26.429688 1.21875 21.503906 0.234375 17.203125 -1.734375 C 12.910156 -3.710938 9.539062 -6.425781 7.09375 -9.875 C 4.644531 -13.320312 3.421875 -17.039062 3.421875 -21.03125 L 20.171875 -21.03125 C 20.335938 -17.894531 21.5 -15.488281 23.65625 -13.8125 C 25.820312 -12.144531 28.71875 -11.3125 32.34375 -11.3125 C 35.726562 -11.3125 38.285156 -11.953125 40.015625 -13.234375 C 41.742188 -14.515625 42.609375 -16.195312 42.609375 -18.28125 Z M 42.609375 -18.28125 "/></g></g></g><g fill="#404040" fill-opacity="1"><g transform="translate(424.731979, 294.369959)"><g><path d="M 25.4375 0 L 7.703125 0 L 7.703125 -66.15625 L 25.4375 -66.15625 Z M 6.671875 -83.28125 C 6.671875 -85.925781 7.554688 -88.101562 9.328125 -89.8125 C 11.097656 -91.53125 13.507812 -92.390625 16.5625 -92.390625 C 19.582031 -92.390625 21.988281 -91.53125 23.78125 -89.8125 C 25.570312 -88.101562 26.46875 -85.925781 26.46875 -83.28125 C 26.46875 -80.582031 25.5625 -78.378906 23.75 -76.671875 C 21.9375 -74.960938 19.539062 -74.109375 16.5625 -74.109375 C 13.59375 -74.109375 11.203125 -74.960938 9.390625 -76.671875 C 7.578125 -78.378906 6.671875 -80.582031 6.671875 -83.28125 Z M 6.671875 -83.28125 "/></g></g></g><g fill="#404040" fill-opacity="1"><g transform="translate(457.928984, 294.369959)"><g><path d="M 4.21875 -33.5625 C 4.21875 -43.71875 6.628906 -51.890625 11.453125 -58.078125 C 16.285156 -64.273438 22.800781 -67.375 31 -67.375 C 38.25 -67.375 43.894531 -64.890625 47.9375 -59.921875 L 48.671875 -66.15625 L 64.6875 -66.15625 L 64.6875 -2.203125 C 64.6875 3.585938 63.367188 8.625 60.734375 12.90625 C 58.109375 17.1875 54.410156 20.445312 49.640625 22.6875 C 44.878906 24.925781 39.296875 26.046875 32.890625 26.046875 C 28.046875 26.046875 23.316406 25.078125 18.703125 23.140625 C 14.097656 21.203125 10.613281 18.707031 8.25 15.65625 L 16.078125 4.890625 C 20.484375 9.828125 25.820312 12.296875 32.09375 12.296875 C 36.78125 12.296875 40.425781 11.039062 43.03125 8.53125 C 45.644531 6.019531 46.953125 2.460938 46.953125 -2.140625 L 46.953125 -5.6875 C 42.878906 -1.082031 37.519531 1.21875 30.875 1.21875 C 22.925781 1.21875 16.492188 -1.882812 11.578125 -8.09375 C 6.671875 -14.3125 4.21875 -22.554688 4.21875 -32.828125 Z M 21.890625 -32.28125 C 21.890625 -26.289062 23.09375 -21.59375 25.5 -18.1875 C 27.90625 -14.78125 31.207031 -13.078125 35.40625 -13.078125 C 40.78125 -13.078125 44.628906 -15.097656 46.953125 -19.140625 L 46.953125 -46.953125 C 44.585938 -50.992188 40.78125 -53.015625 35.53125 -53.015625 C 31.289062 -53.015625 27.957031 -51.28125 25.53125 -47.8125 C 23.101562 -44.34375 21.890625 -39.164062 21.890625 -32.28125 Z M 21.890625 -32.28125 "/></g></g></g><g fill="#404040" fill-opacity="1"><g transform="translate(529.397324, 294.369959)"><g><path d="M 23.046875 -66.15625 L 23.59375 -58.515625 C 28.320312 -64.421875 34.660156 -67.375 42.609375 -67.375 C 49.617188 -67.375 54.835938 -65.316406 58.265625 -61.203125 C 61.691406 -57.085938 63.445312 -50.929688 63.53125 -42.734375 L 63.53125 0 L 45.859375 0 L 45.859375 -42.3125 C 45.859375 -46.0625 45.039062 -48.78125 43.40625 -50.46875 C 41.78125 -52.164062 39.070312 -53.015625 35.28125 -53.015625 C 30.300781 -53.015625 26.570312 -50.894531 24.09375 -46.65625 L 24.09375 0 L 6.421875 0 L 6.421875 -66.15625 Z M 23.046875 -66.15625 "/></g></g></g><g fill="#404040" fill-opacity="1"><g transform="translate(211.30514, 186.141714)"><g><path d="M 77.015625 -25.59375 L 88.953125 -88.71875 L 107.171875 -88.71875 L 87.5 0 L 69.09375 0 L 54.65625 -59.34375 L 40.21875 0 L 21.8125 0 L 2.125 -88.71875 L 20.34375 -88.71875 L 32.359375 -25.71875 L 46.96875 -88.71875 L 62.453125 -88.71875 Z M 77.015625 -25.59375 "/></g></g></g><g fill="#404040" fill-opacity="1"><g transform="translate(320.420325, 186.141714)"><g><path d="M 37.109375 1.21875 C 27.441406 1.21875 19.570312 -1.742188 13.5 -7.671875 C 7.425781 -13.609375 4.390625 -21.507812 4.390625 -31.375 L 4.390625 -33.078125 C 4.390625 -39.703125 5.664062 -45.625 8.21875 -50.84375 C 10.78125 -56.0625 14.40625 -60.082031 19.09375 -62.90625 C 23.789062 -65.726562 29.144531 -67.140625 35.15625 -67.140625 C 44.175781 -67.140625 51.273438 -64.296875 56.453125 -58.609375 C 61.628906 -52.921875 64.21875 -44.859375 64.21875 -34.421875 L 64.21875 -27.234375 L 22.234375 -27.234375 C 22.804688 -22.929688 24.523438 -19.476562 27.390625 -16.875 C 30.253906 -14.28125 33.878906 -12.984375 38.265625 -12.984375 C 45.046875 -12.984375 50.347656 -15.4375 54.171875 -20.34375 L 62.8125 -10.65625 C 60.175781 -6.925781 56.601562 -4.015625 52.09375 -1.921875 C 47.582031 0.171875 42.585938 1.21875 37.109375 1.21875 Z M 35.09375 -52.890625 C 31.601562 -52.890625 28.769531 -51.707031 26.59375 -49.34375 C 24.414062 -46.988281 23.023438 -43.617188 22.421875 -39.234375 L 46.921875 -39.234375 L 46.921875 -40.640625 C 46.835938 -44.535156 45.78125 -47.550781 43.75 -49.6875 C 41.71875 -51.820312 38.832031 -52.890625 35.09375 -52.890625 Z M 35.09375 -52.890625 "/></g></g></g><g fill="#404040" fill-opacity="1"><g transform="translate(387.863379, 186.141714)"><g><path d="M 66.171875 -32.359375 C 66.171875 -21.796875 63.914062 -13.554688 59.40625 -7.640625 C 54.894531 -1.734375 48.597656 1.21875 40.515625 1.21875 C 33.367188 1.21875 27.660156 -1.519531 23.390625 -7 L 22.609375 0 L 6.765625 0 L 6.765625 -93.59375 L 24.375 -93.59375 L 24.375 -60.015625 C 28.4375 -64.765625 33.773438 -67.140625 40.390625 -67.140625 C 48.429688 -67.140625 54.738281 -64.179688 59.3125 -58.265625 C 63.882812 -52.359375 66.171875 -44.046875 66.171875 -33.328125 Z M 48.5625 -33.625 C 48.5625 -40.289062 47.503906 -45.15625 45.390625 -48.21875 C 43.273438 -51.289062 40.128906 -52.828125 35.953125 -52.828125 C 30.347656 -52.828125 26.488281 -50.53125 24.375 -45.9375 L 24.375 -19.921875 C 26.519531 -15.296875 30.414062 -12.984375 36.0625 -12.984375 C 41.75 -12.984375 45.488281 -15.785156 47.28125 -21.390625 C 48.132812 -24.066406 48.5625 -28.144531 48.5625 -33.625 Z M 48.5625 -33.625 "/></g></g></g><g fill="#404040" fill-opacity="1"><g transform="translate(458.119733, 186.141714)"><g/></g></g></svg>